<svg xmlns="http://www.w3.org/2000/svg">
    <defs>
        <symbol id="schedule-utility" viewBox="-3.2 -6.4 70.4 86.4">
            <path d="M12,50.9999771c0,0.5527344,0.4477539,1,1,1h38c0.5522461,0,1-0.4472656,1-1V17.091774c0-0.5522461-0.4477539-1-1-1  H37.4282227c-0.4658203-2.3305664-2.527832-4.0917969-4.9931641-4.0917969s-4.5268555,1.7612305-4.9926758,4.0917969H13  c-0.5522461,0-1,0.4477539-1,1V50.9999771z M14,18.091774h14.34375c0.5522461,0,1-0.4477539,1-1  c0-1.7045898,1.3867188-3.0917969,3.0913086-3.0917969s3.0917969,1.387207,3.0917969,3.0917969c0,0.5522461,0.4477539,1,1,1H50  v31.9082031H14V18.091774z"/><path d="M45.6054688,20.853981H25.0263672c-0.5522461,0-1,0.4477539-1,1v4.3891602c0,0.5522461,0.4477539,1,1,1h20.5791016  c0.5522461,0,1-0.4477539,1-1V21.853981C46.6054688,21.3017349,46.1577148,20.853981,45.6054688,20.853981z M44.6054688,25.2431412  H26.0263672V22.853981h18.5791016V25.2431412z"/><path d="M45.6054688,31.260231H25.0263672c-0.5522461,0-1,0.4477539-1,1v4.3891602c0,0.5527344,0.4477539,1,1,1h20.5791016  c0.5522461,0,1-0.4472656,1-1V32.260231C46.6054688,31.7079849,46.1577148,31.260231,45.6054688,31.260231z M44.6054688,35.6493912  H26.0263672v-2.3886719h18.5791016V35.6493912z"/><path d="M45.6054688,41.6669693H25.0263672c-0.5522461,0-1,0.4472656-1,1v4.3886719c0,0.5527344,0.4477539,1,1,1h20.5791016  c0.5522461,0,1-0.4472656,1-1v-4.3886719C46.6054688,42.1142349,46.1577148,41.6669693,45.6054688,41.6669693z   M44.6054688,46.0556412H26.0263672v-2.3886719h18.5791016V46.0556412z"/><path d="M19.53125,20.853981c-1.7617188,0-3.1948242,1.4331055-3.1948242,3.1948242  c0,1.7612305,1.4331055,3.1943359,3.1948242,3.1943359s3.1948242-1.4331055,3.1948242-3.1943359  C22.7260742,22.2870865,21.2929688,20.853981,19.53125,20.853981z M19.53125,25.2431412  c-0.6586914,0-1.1948242-0.5356445-1.1948242-1.1943359s0.5361328-1.1948242,1.1948242-1.1948242  s1.1948242,0.5361328,1.1948242,1.1948242S20.1899414,25.2431412,19.53125,25.2431412z"/><path d="M19.53125,31.260231c-1.7617188,0-3.1948242,1.4331055-3.1948242,3.1948242s1.4331055,3.1943359,3.1948242,3.1943359  s3.1948242-1.4326172,3.1948242-3.1943359S21.2929688,31.260231,19.53125,31.260231z M19.53125,35.6493912  c-0.6586914,0-1.1948242-0.5361328-1.1948242-1.1943359c0-0.6591797,0.5361328-1.1943359,1.1948242-1.1943359  s1.1948242,0.5351563,1.1948242,1.1943359C20.7260742,35.1132584,20.1899414,35.6493912,19.53125,35.6493912z"/><path d="M19.53125,41.6669693c-1.7617188,0-3.1948242,1.4326172-3.1948242,3.1943359s1.4331055,3.1943359,3.1948242,3.1943359  s3.1948242-1.4326172,3.1948242-3.1943359S21.2929688,41.6669693,19.53125,41.6669693z M19.53125,46.0556412  c-0.6586914,0-1.1948242-0.5361328-1.1948242-1.1943359s0.5361328-1.1943359,1.1948242-1.1943359  s1.1948242,0.5361328,1.1948242,1.1943359S20.1899414,46.0556412,19.53125,46.0556412z"/><path d="M47.5986328,19.2231216h-6.371582c-0.2763672,0-0.5,0.2236328-0.5,0.5s0.2236328,0.5,0.5,0.5h5.871582v8.3945313  c0,0.2763672,0.2236328,0.5,0.5,0.5s0.5-0.2236328,0.5-0.5v-8.8945313  C48.0986328,19.4467545,47.875,19.2231216,47.5986328,19.2231216z"/><path d="M38.3457031,20.2231216h1.3188477c0.2763672,0,0.5-0.2236328,0.5-0.5s-0.2236328-0.5-0.5-0.5h-1.3188477  c-0.2763672,0-0.5,0.2236328-0.5,0.5S38.0693359,20.2231216,38.3457031,20.2231216z"/><path d="M32.5009766,18.907692c1.0009766,0,1.8154297-0.8144531,1.8154297-1.8154297s-0.8144531-1.8154297-1.8154297-1.8154297  s-1.8154297,0.8144531-1.8154297,1.8154297S31.5,18.907692,32.5009766,18.907692z M32.5009766,16.2768326  c0.449707,0,0.8154297,0.3657227,0.8154297,0.8154297s-0.3657227,0.8154297-0.8154297,0.8154297  s-0.8154297-0.3657227-0.8154297-0.8154297S32.0512695,16.2768326,32.5009766,16.2768326z"/>
        </symbol>
        <symbol id="constructors-utility" viewBox="-3.2 -6.4 70.4 86.4">
            <path d="M51.0375977,18.731411c-0.1347656-0.2998047-0.4082031-0.5146484-0.7314453-0.5732422  c-0.3227539-0.0566406-0.6547852,0.0439453-0.887207,0.2763672l-6.8652344,6.8652344l-3.972168-3.9726563l6.8647461-6.8652344  c0.2324219-0.2324219,0.3359375-0.5644531,0.2763672-0.8876953c-0.059082-0.3232422-0.2734375-0.5966797-0.5727539-0.7314453  c-1.5322266-0.6894531-3.1523438-1.0390625-4.8144531-1.0390625c-6.4746094,0-11.7421875,5.2675781-11.7421875,11.7421875  c0,1.4316406,0.2592773,2.8320313,0.7714844,4.1699219L12.2158203,44.8652c-0.1875,0.1875-0.2929688,0.4414063-0.2929688,0.7070313  s0.1054688,0.5195313,0.2929688,0.7070313l5.3862305,5.3857422c0.1953125,0.1953125,0.4511719,0.2929688,0.7070313,0.2929688  s0.5117188-0.0976563,0.7070313-0.2929688l17.1489258-17.1484375c1.3388672,0.5117188,2.7382813,0.7714844,4.1704102,0.7714844  c6.4746094,0,11.7416992-5.2675781,11.7416992-11.7421875C52.0771484,21.8827782,51.7275391,20.262661,51.0375977,18.731411z   M40.3354492,33.2880516c-1.378418,0-2.7216797-0.2910156-3.9931641-0.8642578  c-0.3808594-0.1689453-0.824707-0.0878906-1.1181641,0.2050781L18.309082,49.543911l-3.972168-3.9716797l16.9150391-16.9150391  c0.2939453-0.2939453,0.3754883-0.7392578,0.2045898-1.1181641c-0.5727539-1.2705078-0.8632813-2.6142578-0.8632813-3.9931641  c0-5.3720703,4.3701172-9.7421875,9.7421875-9.7421875c0.8798828,0,1.7456055,0.1181641,2.5878906,0.3535156l-6.4628906,6.4628906  c-0.390625,0.390625-0.390625,1.0234375,0,1.4140625l5.3862305,5.3867188c0.375,0.375,1.0390625,0.375,1.4140625,0  l6.4633789-6.4628906c0.2348633,0.8417969,0.3530273,1.7080078,0.3530273,2.5878906  C50.0771484,28.9179344,45.7070313,33.2880516,40.3354492,33.2880516z"/><path d="M46.4462891,28.39645c-0.1665039,0.2041016-0.3447266,0.4013672-0.5356445,0.5917969  c-1.8115234,1.8125-4.4013672,2.6191406-6.9223633,2.1533203c-0.2734375-0.0449219-0.5322266,0.1308594-0.5820313,0.4023438  s0.1298828,0.5322266,0.4013672,0.5820313c0.5302734,0.0966797,1.0625,0.1445313,1.5917969,0.1445313  c2.3120117,0,4.5551758-0.9111328,6.2177734-2.5751953c0.2148438-0.2138672,0.4155273-0.4365234,0.6035156-0.6660156  c0.1748047-0.2138672,0.1430664-0.5283203-0.0708008-0.703125C46.9360352,28.1503563,46.6210938,28.1816063,46.4462891,28.39645z"/><path d="M32.3496094,21.4355125c-0.2739258-0.0546875-0.5336914,0.1269531-0.5844727,0.3984375  c-0.0874023,0.4609375-0.1381836,0.9306641-0.1513672,1.3964844c-0.0073242,0.2763672,0.2099609,0.5058594,0.4863281,0.5136719  c0.0043945,0,0.0092773,0,0.0141602,0c0.2695313,0,0.4916992-0.2148438,0.4995117-0.4863281  c0.0112305-0.4121094,0.0561523-0.8291016,0.1337891-1.2382813C32.7988281,21.7480125,32.6206055,21.4872704,32.3496094,21.4355125z  "/><path d="M34.1855469,17.2636375c-0.2646484,0.2636719-0.5146484,0.546875-0.7431641,0.8427734  c-0.5629883,0.7275391-1.0058594,1.5351563-1.315918,2.3994141c-0.0932617,0.2597656,0.0419922,0.546875,0.3022461,0.6396484  c0.0556641,0.0195313,0.1123047,0.0292969,0.168457,0.0292969c0.2050781,0,0.3974609-0.1269531,0.4707031-0.3310547  c0.2744141-0.765625,0.6665039-1.4814453,1.1655273-2.1259766c0.2026367-0.2617188,0.4243164-0.5126953,0.6582031-0.7470703  c0.1958008-0.1943359,0.1958008-0.5117188,0.0009766-0.7070313C34.6972656,17.068325,34.3798828,17.068325,34.1855469,17.2636375z"/><path d="M48.5786133,24.943325c-0.2631836-0.0576172-0.5380859,0.1005859-0.6030273,0.3691406  c-0.1801758,0.7460938-0.4672852,1.4560547-0.8530273,2.1113281c-0.1401367,0.2382813-0.0610352,0.5449219,0.1767578,0.6845703  c0.0800781,0.046875,0.1669922,0.0693359,0.253418,0.0693359c0.1713867,0,0.3383789-0.0878906,0.4311523-0.2460938  c0.4360352-0.7402344,0.7602539-1.5429688,0.9633789-2.3847656C49.012207,25.278286,48.847168,25.0087547,48.5786133,24.943325z"/><path d="M22.6210938,42.5068016l-4.25,4.25l-0.6567383-0.65625c-0.1953125-0.1953125-0.5117188-0.1953125-0.7070313,0  s-0.1953125,0.5117188,0,0.7070313l1.0102539,1.0097656c0.0976563,0.0976563,0.2255859,0.1464844,0.3535156,0.1464844  s0.2558594-0.0488281,0.3535156-0.1464844l4.6035156-4.6035156c0.1953125-0.1953125,0.1953125-0.5117188,0-0.7070313  S22.8164063,42.3114891,22.6210938,42.5068016z"/><path d="M24.6748047,40.4530907l-1.2089844,1.2089844c-0.1953125,0.1953125-0.1953125,0.5117188,0,0.7070313  c0.0976563,0.0976563,0.2255859,0.1464844,0.3535156,0.1464844s0.2558594-0.0488281,0.3535156-0.1464844l1.2089844-1.2089844  c0.1953125-0.1953125,0.1953125-0.5117188,0-0.7070313S24.8701172,40.2577782,24.6748047,40.4530907z"/>
        </symbol>
        <symbol id="drivers-utility" viewBox="-3.2 -6.4 70.4 86.4">
            <path d="M24.8300667,33.3964844c5.8994141,0,10.6982422-4.7993164,10.6982422-10.6982422S30.7294807,12,24.8300667,12  s-10.6982422,4.7993164-10.6982422,10.6982422S18.9306526,33.3964844,24.8300667,33.3964844z M24.8300667,14  c4.7958984,0,8.6982422,3.9018555,8.6982422,8.6982422s-3.9023438,8.6982422-8.6982422,8.6982422  s-8.6982422-3.9018555-8.6982422-8.6982422S20.0341682,14,24.8300667,14z"/><path d="M6.8163948,51.8759766c0.5400391,0.1030273,1.0673828-0.2485352,1.1728516-0.7905273l0.7041016-3.6191406  c0.8691406-4.4726563,4.8066406-7.71875,9.3642578-7.71875h13.5244141c4.5576172,0,8.4951172,3.2460938,9.3642578,7.7192383  l0.7246094,3.7241211C41.7636604,51.668457,42.1826057,52,42.6513557,52c0.0634766,0,0.1279297-0.0058594,0.1923828-0.0185547  c0.5419922-0.1054688,0.8955078-0.6303711,0.7900391-1.1723633l-0.7246094-3.7236328  c-1.0507813-5.4106445-5.8144531-9.3378906-11.3271484-9.3378906H18.0576057  c-5.5126953,0-10.2763672,3.9272461-11.3271484,9.3374023l-0.7041016,3.6186523  C5.920887,51.2456055,6.2744026,51.7705078,6.8163948,51.8759766z"/><path d="M22.3486214,16.3178711c0.2568359-0.1000977,0.3847656-0.3901367,0.2841797-0.6474609  s-0.3916016-0.3857422-0.6474609-0.2841797c-1.6533203,0.644043-3.0546875,1.8461914-3.9462891,3.3852539  c-0.1386719,0.2387695-0.0566406,0.5449219,0.1816406,0.6831055c0.0791016,0.0458984,0.1650391,0.0673828,0.2509766,0.0673828  c0.171875,0,0.3398438-0.0893555,0.4326172-0.2495117C19.6826057,17.9291992,20.905262,16.8798828,22.3486214,16.3178711z"/><path d="M17.8466682,20.3686523c-0.2714844-0.0717773-0.5410156,0.0913086-0.6103516,0.3579102  c-0.1660156,0.6396484-0.25,1.3027344-0.25,1.9716797c0,0.3120117,0.0185547,0.6201172,0.0537109,0.9223633  C17.0703011,23.875,17.2861214,24.0625,17.5361214,24.0625c0.0195313,0,0.0390625-0.0009766,0.0595703-0.003418  c0.2734375-0.0322266,0.4697266-0.2807617,0.4384766-0.5546875c-0.03125-0.2641602-0.0478516-0.5332031-0.0478516-0.8061523  c0-0.5839844,0.0732422-1.1625977,0.21875-1.7197266C18.2744026,20.7109375,18.1132698,20.4379883,17.8466682,20.3686523z"/><path d="M30.5917854,40.5h-1.2412109c-0.2763672,0-0.5,0.2236328-0.5,0.5s0.2236328,0.5,0.5,0.5h1.2412109  c2.2900391,0,4.4375,0.8564453,6.046875,2.4116211c0.0976563,0.0942383,0.2226563,0.140625,0.3476563,0.140625  c0.1308594,0,0.2617188-0.0512695,0.359375-0.152832c0.1923828-0.1982422,0.1865234-0.5146484-0.0117188-0.706543  C35.5361214,41.4560547,33.1425667,40.5,30.5917854,40.5z"/><path d="M38.8954964,47.8979492c0.0527344,0.2329102,0.2587891,0.390625,0.4882813,0.390625  c0.0361328,0,0.0722656-0.0039063,0.109375-0.012207c0.2695313-0.0605469,0.4394531-0.328125,0.3789063-0.597168  c-0.2783203-1.2348633-0.8085938-2.3798828-1.5791016-3.4023438c-0.1669922-0.2211914-0.4814453-0.2641602-0.7001953-0.0986328  c-0.2207031,0.1660156-0.2646484,0.4794922-0.0986328,0.7001953C38.1777229,45.7871094,38.6494026,46.8027344,38.8954964,47.8979492  z"/><path d="M41.3974495,33.7216797c-2.2158203,0-4.3056641-0.9741211-5.7333984-2.6728516  c-0.3564453-0.4233398-0.9863281-0.4780273-1.4091797-0.1220703c-0.4228516,0.3554688-0.4775391,0.9863281-0.1220703,1.4091797  c1.8085938,2.1518555,4.4560547,3.3857422,7.2646484,3.3857422c5.2304688,0,9.4863281-4.2553711,9.4863281-9.4858398  S46.6279182,16.75,41.3974495,16.75c-1.7441406,0-3.4501953,0.4780273-4.9326172,1.3818359  c-0.4716797,0.2875977-0.6210938,0.902832-0.3330078,1.3745117c0.2880859,0.472168,0.9052734,0.6201172,1.3740234,0.3334961  C38.6747932,19.1269531,40.0204964,18.75,41.3974495,18.75c4.1279297,0,7.4863281,3.3579102,7.4863281,7.4858398  S45.5253792,33.7216797,41.3974495,33.7216797z"/><path d="M41.8720589,39.2788086c-0.5527344,0-1,0.4477539-1,1s0.4472656,1,1,1h5.4335938  c3.9267578,0,7.3212891,2.7983398,8.0712891,6.6533203l0.6337891,3.2587891C56.1035042,51.668457,56.5224495,52,56.9911995,52  c0.0634766,0,0.1269531-0.0058594,0.1914063-0.0185547c0.5429688-0.1054688,0.8964844-0.6303711,0.7910156-1.1723633  l-0.6337891-3.2587891c-0.9316406-4.7929688-5.1523438-8.2714844-10.0341797-8.2714844H41.8720589z"/><path d="M46.4394417,41.75h-1.0859375c-0.2763672,0-0.5,0.2236328-0.5,0.5s0.2236328,0.5,0.5,0.5h1.0859375  c1.9873047,0,3.8515625,0.7431641,5.2470703,2.0927734c0.0976563,0.09375,0.2226563,0.140625,0.3476563,0.140625  c0.1308594,0,0.2617188-0.0507813,0.359375-0.1523438c0.1923828-0.1987305,0.1865234-0.5151367-0.0117188-0.7070313  C50.7978401,42.5932617,48.6874886,41.75,46.4394417,41.75z"/><path d="M52.4286995,45.6811523c0.5927734,0.7875977,1.0019531,1.668457,1.2148438,2.6186523  c0.0527344,0.2324219,0.2587891,0.3901367,0.4882813,0.3901367c0.0361328,0,0.0732422-0.0039063,0.109375-0.012207  c0.2695313-0.0605469,0.4394531-0.328125,0.3789063-0.5976563c-0.2451172-1.0888672-0.7138672-2.0986328-1.3925781-3.0004883  c-0.1669922-0.2216797-0.4814453-0.2641602-0.7001953-0.0986328C52.3066292,45.1469727,52.2626839,45.4604492,52.4286995,45.6811523  z"/>
        </symbol>
        <symbol id="archives-utility" viewBox="-3.2 -6.4 70.4 86.4">
            <path d="M24.9790039,12.0527h-5c-0.5522461,0-1,0.4472656-1,1v3.9472656h-3.4526367c-0.5522461,0-1,0.4472656-1,1v32.9472656  c0,0.5527344,0.4477539,1,1,1h32.9472656c0.5527344,0,1-0.4472656,1-1V17.9999657c0-0.5527344-0.4472656-1-1-1h-3.453125V13.0527  c0-0.5527344-0.4472656-1-1-1h-5c-0.5527344,0-1,0.4472656-1,1v3.9472656H25.9790039V13.0527  C25.9790039,12.4999657,25.53125,12.0527,24.9790039,12.0527z M20.9790039,14.0527h3v2.9472656h-3V14.0527z M16.5263672,49.9472313  V27.8886375h30.9472656v22.0585938H16.5263672z M47.4736328,25.8886375H16.5263672v-6.8886719h3.4526367h5h14.0415039h5h3.453125  V25.8886375z M40.0205078,14.0527h3v2.9472656h-3V14.0527z"/><path d="M19.9790039,38.2548485h6.2578125c0.5522461,0,1-0.4472656,1-1v-6.2568359c0-0.5527344-0.4477539-1-1-1h-6.2578125  c-0.5522461,0-1,0.4472656-1,1v6.2568359C18.9790039,37.8075829,19.4267578,38.2548485,19.9790039,38.2548485z   M20.9790039,31.9980125h4.2578125v4.2568359h-4.2578125V31.9980125z"/><path d="M35.1289063,29.9980125h-6.2578125c-0.5522461,0-1,0.4472656-1,1v6.2568359c0,0.5527344,0.4477539,1,1,1h6.2578125  c0.5527344,0,1-0.4472656,1-1v-6.2568359C36.1289063,30.4452782,35.6816406,29.9980125,35.1289063,29.9980125z   M34.1289063,36.2548485h-4.2578125v-4.2568359h4.2578125V36.2548485z"/><path d="M44.0205078,29.9980125h-6.2568359c-0.5527344,0-1,0.4472656-1,1v6.2568359c0,0.5527344,0.4472656,1,1,1h6.2568359  c0.5527344,0,1-0.4472656,1-1v-6.2568359C45.0205078,30.4452782,44.5732422,29.9980125,44.0205078,29.9980125z   M43.0205078,36.2548485h-4.2568359v-4.2568359h4.2568359V36.2548485z"/><path d="M19.9790039,47.8378563h6.2578125c0.5522461,0,1-0.4472656,1-1v-6.2568359c0-0.5527344-0.4477539-1-1-1h-6.2578125  c-0.5522461,0-1,0.4472656-1,1v6.2568359C18.9790039,47.3905907,19.4267578,47.8378563,19.9790039,47.8378563z   M20.9790039,41.5810204h4.2578125v4.2568359h-4.2578125V41.5810204z"/><path d="M35.1289063,39.5810204h-6.2578125c-0.5522461,0-1,0.4472656-1,1v6.2568359c0,0.5527344,0.4477539,1,1,1h6.2578125  c0.5527344,0,1-0.4472656,1-1v-6.2568359C36.1289063,40.028286,35.6816406,39.5810204,35.1289063,39.5810204z   M34.1289063,45.8378563h-4.2578125v-4.2568359h4.2578125V45.8378563z"/><path d="M44.0205078,39.5810204h-6.2568359c-0.5527344,0-1,0.4472656-1,1v6.2568359c0,0.5527344,0.4472656,1,1,1h6.2568359  c0.5527344,0,1-0.4472656,1-1v-6.2568359C45.0205078,40.028286,44.5732422,39.5810204,44.0205078,39.5810204z   M43.0205078,45.8378563h-4.2568359v-4.2568359h4.2568359V45.8378563z"/><path d="M33.7919922,20.4169579c0,0.2763672,0.2236328,0.5,0.5,0.5h10.7910156v1.4375c0,0.2763672,0.2236328,0.5,0.5,0.5  s0.5-0.2236328,0.5-0.5v-1.9375c0-0.2763672-0.2236328-0.5-0.5-0.5H34.2919922  C34.015625,19.9169579,33.7919922,20.1405907,33.7919922,20.4169579z"/><path d="M28,48.2138329h-9.3969727v-1.7412109c0-0.2763672-0.2236328-0.5-0.5-0.5s-0.5,0.2236328-0.5,0.5v2.2412109  c0,0.2763672,0.2236328,0.5,0.5,0.5H28c0.2763672,0,0.5-0.2236328,0.5-0.5S28.2763672,48.2138329,28,48.2138329z"/><path d="M31.3886719,48.2138329H29.5c-0.2763672,0-0.5,0.2236328-0.5,0.5s0.2236328,0.5,0.5,0.5h1.8886719  c0.2763672,0,0.5-0.2236328,0.5-0.5S31.6650391,48.2138329,31.3886719,48.2138329z"/>
        </symbol>
        <symbol id="favorites-utility" viewBox="-3.2 -6.4 70.4 86.4">
            <path d="M42.0292969,12.00037c-4.4453125,0-8.2851563,2.6435547-10.0292969,6.4414063  c-1.7441406-3.7978516-5.5839844-6.4414063-10.0292969-6.4414063c-6.0820313,0-11.0297852,4.9472656-11.0297852,11.0292969  c0,17.0566406,19.7285156,28.3691406,20.5683594,28.8417969C31.6616211,51.9574013,31.8305664,52.00037,32,52.00037  s0.3383789-0.0429688,0.4907227-0.1289063c0.8398438-0.4726563,20.5683594-11.7851563,20.5683594-28.8417969  C53.059082,16.9476357,48.1113281,12.00037,42.0292969,12.00037z M32,49.8363075  c-3.034668-1.8574219-19.059082-12.3564453-19.059082-26.8066406c0-4.9785156,4.0507813-9.0292969,9.0297852-9.0292969  S31,18.0511513,31,23.0296669c0,0.5527344,0.4477539,1,1,1s1-0.4472656,1-1c0-4.9785156,4.050293-9.0292969,9.0292969-9.0292969  s9.0297852,4.0507813,9.0297852,9.0292969C51.059082,37.4798622,35.034668,47.9788857,32,49.8363075z"/><path d="M46.5961914,16.5013466c-0.6708984-0.5126953-1.4067383-0.921875-2.1865234-1.2177734  c-0.2573242-0.0947266-0.5463867,0.0332031-0.6450195,0.2910156c-0.0976563,0.2578125,0.0322266,0.546875,0.2905273,0.6445313  c0.6894531,0.2607422,1.340332,0.6230469,1.934082,1.0771484c3.5141602,2.6845703,4.1689453,6.8408203,1.7524414,11.1181641  c-0.1357422,0.2402344-0.0507813,0.5458984,0.1894531,0.6816406c0.0776367,0.0439453,0.1621094,0.0644531,0.2456055,0.0644531  c0.1743164,0,0.34375-0.0917969,0.4360352-0.2539063C51.2973633,24.1546669,50.543457,19.5169716,46.5961914,16.5013466z"/><path d="M21.7807617,38.6986122c-0.175293-0.2109375-0.4902344-0.2392578-0.7041016-0.0625  c-0.2119141,0.1777344-0.2397461,0.4931641-0.0625,0.7050781c0.7919922,0.9462891,1.6743164,1.8955078,2.6230469,2.8212891  c0.097168,0.0947266,0.2231445,0.1416016,0.3491211,0.1416016c0.1298828,0,0.2597656-0.0507813,0.3579102-0.1503906  c0.1928711-0.1982422,0.1889648-0.5146484-0.0087891-0.7080078C23.4106445,40.5443153,22.5512695,39.6195107,21.7807617,38.6986122z  "/><path d="M34.9331055,45.4730263c-1.3793945,1.0097656-2.4648438,1.6826172-2.9311523,1.9609375  c-0.7749023-0.4707031-3.2734375-2.0537109-6.0405273-4.484375c-0.2075195-0.1806641-0.5234375-0.1611328-0.7055664,0.0458984  c-0.1826172,0.2080078-0.1621094,0.5234375,0.0454102,0.7060547c3.3974609,2.9833984,6.3266602,4.6767578,6.449707,4.7470703  C31.828125,48.4925575,31.9140625,48.5150185,32,48.5150185c0.0844727,0,0.1694336-0.0214844,0.2456055-0.0644531  c0.0551758-0.03125,1.3798828-0.78125,3.2783203-2.1708984c0.2226563-0.1630859,0.2709961-0.4755859,0.1079102-0.6982422  C35.4692383,45.3587685,35.1572266,45.3089638,34.9331055,45.4730263z"/><path d="M28.5200195,19.31287c0.09375,0.15625,0.2592773,0.2421875,0.4287109,0.2421875  c0.0878906,0,0.1767578-0.0234375,0.2573242-0.0712891c0.2368164-0.1425781,0.3129883-0.4501953,0.1704102-0.6865234  c-0.4614258-0.7666016-1.0375977-1.4550781-1.7133789-2.0458984c-0.2075195-0.1816406-0.5234375-0.1621094-0.7055664,0.046875  c-0.1816406,0.2080078-0.1606445,0.5234375,0.0473633,0.7050781C27.6020508,18.0267372,28.1118164,18.6351357,28.5200195,19.31287z"/><path d="M21.0180664,15.1683388c-0.0498047-0.2714844-0.3061523-0.4443359-0.5820313-0.4023438  c-2.7094727,0.4980469-5.0327148,2.2861328-6.215332,4.7832031c-0.1186523,0.2490234-0.0117188,0.5478516,0.237793,0.6660156  c0.0688477,0.0322266,0.1416016,0.0478516,0.2133789,0.0478516c0.1875,0,0.3666992-0.1054688,0.4521484-0.2861328  c1.0458984-2.2070313,3.0991211-3.7871094,5.4926758-4.2265625C20.8881836,15.6995888,21.0678711,15.4398232,21.0180664,15.1683388z  "/>
        </symbol>
        <symbol id="light-mode-utility" viewBox="0 0 100 125">
            <path d="M38.59188,53.36286l-.00019.00019a4.65268,4.65268,0,1,0,.00019-.00019Zm5.16582,5.16582A2.65275,2.65275,0,1,1,40.006,54.77731l.00019-.00019a2.65275,2.65275,0,0,1,3.75156,3.75156Z"/><path d="M90.5996,24.676a3.92664,3.92664,0,0,0-.13447-5.525L78.79169,7.89391a.99767.99767,0,0,0-.7793-.27656l-27.824,2.37578a.99826.99826,0,0,0-.62188.28926L19.30224,40.54645a.99982.99982,0,0,0,0,1.41406l4.573,4.57325c3.09706,3.09612,7.77637-1.58544,4.68067-4.68067l-1.302-1.30215L51.90868,15.89626l9.30176-.4836,2.10664,2.10664,3.769,3.76905-1.75254,1.75244L63.5036,21.2029a.99961.99961,0,0,0-.70625-.29434l-9.14023-.02168h-.00234a1.01582,1.01582,0,0,0-.70528.291c-9.20485,9.15707-8.89535,8.84918-9.32715,9.27871a1,1,0,0,0-.29472.70664L43.30692,39.891,25.13627,58.06164l-8.61138-.02041a.99627.99627,0,0,0-.5769.16655c-.16023.106-.29818.26906-9.478,9.40137a1.00006,1.00006,0,0,0-.29473.70664L6.1536,77.45993a1.00013,1.00013,0,0,0,.29141.708L20.287,92.07028a.99963.99963,0,0,0,.70625.29434l9.14434.02168h.00234a1.00062,1.00062,0,0,0,.70527-.291l9.3252-9.27695a1.02951,1.02951,0,0,0,.29473-.70664l.0209-8.82344L58.55927,55.215l8.72871.0209h.00234a1.00065,1.00065,0,0,0,.70528-.291l8.73833-8.69312A13.37639,13.37639,0,0,0,90.5996,24.676ZM61.55087,13.39235l-10.12969.52656a.99934.99934,0,0,0-.65508.2916L25.1327,39.84391a.99965.99965,0,0,0,0,1.41407l2.00918,2.00918a1.30991,1.30991,0,0,1-1.85253,1.85234l-3.86582-3.866L50.72235,11.95466,77.73017,9.6486l11.34668,10.942a1.93663,1.93663,0,1,1-2.71368,2.76348l-9.96445-9.96426a1.00063,1.00063,0,0,0-1.65195.37949l-.96172,2.77559a2.22282,2.22282,0,0,1-2.77442,1.3998L64.55712,15.931,62.30985,13.684A.98951.98951,0,0,0,61.55087,13.39235Zm16.4209,15.95352L67.60233,18.97643l2.8126.87764A4.21338,4.21338,0,0,0,75.6747,17.2l.43906-1.267L83.829,23.64821a16.14949,16.14949,0,0,0-4.14121,5.41641A1.06679,1.06679,0,0,1,77.97177,29.34587Zm-9.54629-6.56836,7.33105,7.33105-1.68008,1.67988-7.331-7.33105Zm-3.80884,2.37778.00747.00913.37031.37031L75.63817,36.22458l-.015,6.31509-.8727-.8772A4.85411,4.85411,0,0,0,70.65365,40.267a4.85664,4.85664,0,0,0-1.37485-4.10469l-6.868-6.89179a4.855,4.855,0,0,0-4.09692-1.39571,4.85392,4.85392,0,0,0-1.37437-4.1039l-.87368-.87827,6.31274.015ZM67.5997,52.51755l-1.87051-1.88047a2.88187,2.88187,0,0,1,.01055-4.0711l3.52168-3.50351a2.87815,2.87815,0,0,1,4.07109.01054l1.87065,1.88033Zm-14.459,5.28789a2.65337,2.65337,0,0,1,3.43252-3.43252ZM51.2869,59.65925A4.64813,4.64813,0,0,0,44.888,66.05812l-.37168.37168a4.65632,4.65632,0,0,0-7.01909,3.11988l-1.54668-1.55337a4.651,4.651,0,1,0-4.1294-7.86275l-.00019.0002A4.61746,4.61746,0,0,0,30.53978,62.562l-1.52417-1.53081a4.65455,4.65455,0,0,0,3.05269-7.07344l.34756-.34756a4.65022,4.65022,0,0,0,6.42334-6.42334l.34736-.34736a4.64947,4.64947,0,0,0,7.0874-3.13569l1.58956,1.59643a4.65236,4.65236,0,1,0,5.36792,5.39116l1.57524,1.58213a4.63789,4.63789,0,0,0-3.15093,7.0169ZM46.37235,64.5738a2.64891,2.64891,0,0,1,3.43013-3.43013Zm-15.925,25.09609-1.8705-1.88027a2.877,2.877,0,0,1,.01035-4.0711l3.52187-3.50371a2.88258,2.88258,0,0,1,4.0711.01055l1.87065,1.88032ZM16.49872,60.45348l1.87051,1.88028a2.87711,2.87711,0,0,1-.01055,4.07109L14.837,69.90856a2.88185,2.88185,0,0,1-4.07109-.01055L8.89525,68.01769Zm-.25117,10.87305,3.52168-3.50371a2.87807,2.87807,0,0,1,4.07168.01113l6.86816,6.8918a2.87711,2.87711,0,0,1-.01054,4.07109l-3.52188,3.50371a2.88186,2.88186,0,0,1-4.07168-.01113L16.23642,75.397A2.88186,2.88186,0,0,1,16.24755,71.32653Zm21.35058,7.48828a4.86852,4.86852,0,0,0-4.0977-1.38847,4.85666,4.85666,0,0,0-1.374-4.11172l-6.86816-6.8918a4.869,4.869,0,0,0-4.0977-1.38848,4.85677,4.85677,0,0,0-1.37339-4.11113l-.87173-.87632,6.28686.01494c.20343.16674-1.08942-1.12014,13.2835,13.31529l-.015,6.31489Zm-7.005-23.38193a2.65249,2.65249,0,0,1-3.47285,3.47285ZM33.23524,61.548l.0002-.00019a2.65275,2.65275,0,1,1,.23843,3.96094l-.45381-.45576A2.64708,2.64708,0,0,1,33.23524,61.548Zm6.36529,9.79761a2.65165,2.65165,0,0,1,3.43125-3.43125ZM37.36532,48.66071A2.6521,2.6521,0,0,1,33.891,52.135ZM44.136,41.89a2.65285,2.65285,0,0,1-3.47432,3.47431Zm7.16914,7.99218a2.65274,2.65274,0,1,1-.777-1.87578A2.63566,2.63566,0,0,1,51.30517,49.88219ZM58.56649,53.215,45.30692,39.898l.01641-6.925,1.17695,1.183a4.8563,4.8563,0,0,0,4.10381,1.39483,4.86855,4.86855,0,0,0,1.36729,4.10478l.00058.00059,6.86817,6.892a4.85458,4.85458,0,0,0,4.10381,1.39463,4.86824,4.86824,0,0,0,1.36728,4.10478l1.17773,1.184ZM53.65111,23.30109l1.87066,1.88032a2.87727,2.87727,0,0,1-.01055,4.0711L51.98935,32.756a2.87994,2.87994,0,0,1-4.0711-.01054L46.0476,30.8652ZM67.85087,41.6445,64.32919,45.148a2.8779,2.8779,0,0,1-4.07168-.01093L53.38876,38.2445a2.88187,2.88187,0,0,1,.01113-4.07051l3.52188-3.50371a2.878,2.878,0,0,1,4.07168.01133l6.868,6.8918A2.87712,2.87712,0,0,1,67.85087,41.6445ZM8.15458,77.05036,8.171,70.12555l1.17695,1.183a4.847,4.847,0,0,0,4.0977,1.38867A4.85651,4.85651,0,0,0,14.819,76.80817l.00059.00059,6.868,6.89179a4.84713,4.84713,0,0,0,4.09775,1.38868,4.85558,4.85558,0,0,0,1.37354,4.11093L28.33456,90.382,21.412,90.36559ZM88.511,41.449a11.30218,11.30218,0,0,1-10.89229,2.97256l.02041-8.60654a1.00007,1.00007,0,0,0-.29141-.708l-1.87656-1.88472,1.88858-1.88847a3.05772,3.05772,0,0,0,4.13154-1.40435,14.0765,14.0765,0,0,1,3.77754-4.87607,3.93361,3.93361,0,0,0,3.61543.69726A11.36982,11.36982,0,0,1,88.511,41.449Z"/>
        </symbol>
        <symbol id="helmet-utility" viewBox="-5.0 -10.0 110.0 135.0">
            <path d="m91 50.629c-0.26562-10.664-4.7031-20.801-12.359-28.234-7.6562-7.4297-17.922-11.566-28.59-11.516-12.238 0.007813-24.277 3.1016-35 9l-5 2.7812c-1.0625 0.58594-1.7266 1.6992-1.7305 2.9102-0.03125 1.2227 0.61328 2.3594 1.6797 2.9609l4 2.2891c-3.4844 8.168-5.2773 16.957-5.2695 25.84 0.003906 4.4258 1.4766 8.7266 4.1836 12.227 2.7109 3.4961 6.5039 6 10.785 7.1133l48.941 12.629c1.2578 0.32422 2.5508 0.49219 3.8477 0.49219 4.1055-0.015625 8.0312-1.6875 10.887-4.6328 2.8555-2.9492 4.4023-6.9258 4.2852-11.027zm-34.66 4.4219c-0.55078 0-1 0.44531-1 1v7.3711l-5.6406-1.793c-2.5352-0.78125-4.2773-3.1055-4.3203-5.7578l-0.21875-12.352c-0.035156-1.8594 0.77734-3.6328 2.207-4.8242 1.4258-1.1914 3.3203-1.6719 5.1445-1.3047l2.8516 0.57031-0.003906 14.16c0 0.55078 0.44922 1 1 1 0.55469 0 1-0.44922 1-1v-13.762l31.078 6.25h0.003906c0.34375 2.0078 0.53125 4.043 0.55859 6.082l0.67188 22.828v0.55859l-32.363-10.078v-8c-0.023438-0.51953-0.44531-0.93359-0.96875-0.94922zm28.371 29.219c-3.25 2.6133-7.5469 3.5273-11.582 2.4688l-3.8906-1-6.918-8.4375c-1.3711-1.6758-3.2305-2.8867-5.3203-3.4609l-22.648-6.1289c-0.52344-0.12891-1.0508 0.17578-1.2031 0.6875-0.12109 0.51953 0.18359 1.043 0.69141 1.1914l22.609 6.1406c1.7109 0.46094 3.2344 1.4414 4.3594 2.8086l5.1914 6.3711-41.809-10.801c-5.4258-1.4023-9.8867-5.25-12.07-10.41l17.379 4.7109c0.085938 0.015625 0.17578 0.015625 0.26172 0 0.41797-0.085937 0.73828-0.42969 0.79297-0.85547 0.054687-0.42578-0.16797-0.83594-0.55469-1.0234l-18.66-5.0625c-0.43359-1.5664-0.65625-3.1836-0.66016-4.8086-0.011719-8.7266 1.7656-17.359 5.2305-25.371l0.21875-0.48047c0.19141-0.45703 0.015625-0.98438-0.41016-1.2383l-4.7188-2.7305c-0.4375-0.25-0.70312-0.71094-0.70312-1.2148s0.26562-0.96484 0.70312-1.2148l5-2.7812c10.43-5.7578 22.145-8.7852 34.059-8.8008 8.7461-0.046875 17.254 2.8594 24.141 8.25s11.75 12.949 13.801 21.453l-35.102-7.0625c-2.4023-0.48047-4.8984 0.15234-6.7812 1.7266-1.8828 1.5703-2.9531 3.9102-2.9062 6.3633l0.21875 12.352c0.058593 3.4922 2.3555 6.5469 5.6914 7.5781l40.398 12.578v0.003906c-0.52734 3.2344-2.2422 6.1602-4.8086 8.1992zm-34.66-64.27c-10.004 0.015625-19.859 2.3906-28.77 6.9297-0.13672 0.074218-0.28906 0.11328-0.44141 0.10937-0.36328-0.003906-0.69922-0.20703-0.87109-0.52734-0.23438-0.48438-0.050781-1.0664 0.42188-1.3203 9.1836-4.6953 19.344-7.1602 29.66-7.1914 0.29688-0.066406 0.60547 0.003906 0.84375 0.19141 0.23828 0.19141 0.37891 0.48047 0.37891 0.78516 0 0.30078-0.14063 0.58984-0.37891 0.78125-0.23828 0.1875-0.54688 0.26172-0.84375 0.19141zm-14.922 27.672c0.88672 1.2695 1.3516 2.7812 1.3398 4.3281 0 3.0625-1.8438 5.8203-4.6719 6.9922-2.8281 1.1719-6.0859 0.52734-8.25-1.6406-2.1641-2.1641-2.8125-5.418-1.6406-8.25 1.1719-2.8281 3.9336-4.6719 6.9922-4.6719 0.92578-0.003907 1.8398 0.16406 2.7031 0.5 0.39453 0.26172 0.55078 0.76172 0.37891 1.2031-0.17578 0.4375-0.63281 0.69531-1.1016 0.61719-0.63672-0.24609-1.3164-0.36719-2-0.35938-2.2734 0.003906-4.3203 1.375-5.1836 3.4766-0.86719 2.1016-0.38281 4.5195 1.2266 6.125 1.6133 1.6016 4.0312 2.0781 6.1289 1.207 2.0977-0.875 3.4648-2.9258 3.4609-5.1992 0-1.1328-0.35156-2.2422-1-3.1719-0.29688-0.44531-0.1875-1.043 0.25-1.3594 0.43359-0.30859 1.0391-0.22266 1.3672 0.20312z"/>
        </symbol>
    </defs>
</svg>