<svg xmlns="http://www.w3.org/2000/svg">
    <defs>
        <symbol id="buddh-circuit" viewBox="0 0 100 125">
            <path d="M89.9875,88.3631c-2.1978-1.912-4.6355-4.041-5.953-5.2217c-2.2897-2.0527-3.5644-6.7517-1.5703-11.7605  c0.3502-0.8798,0.2911-1.8584-0.1623-2.6851c-0.4485-0.8183-1.2314-1.3883-2.1486-1.5639L54.649,62.2535l0.197-0.9866l8.4773,1.692  l2.2635,0.4518l-2.3876-2.1881l-0.8384,0.5172l-8.3054-1.6577l-0.3956,1.9823l-17.0012-3.2519  c-0.5228-0.1003-0.6526-0.538-0.6801-0.6698c-0.0271-0.1318-0.0821-0.5847,0.3575-0.8842l18.6326-12.6949  c1.1449-0.7795,1.8353-2.0719,1.8471-3.4572c0.0123-1.3849-0.6555-2.6891-1.7866-3.4887l-12.477-8.8236  c-0.9182-0.6496-2.0704-0.9009-3.1745-0.6973l-2.4614,0.4559c-1.9116,0.3541-3.8467-0.6182-4.7068-2.3542l-7.8572-15.8511  c-1.0037-2.0247-3.2517-3.1622-5.4834-2.7707L16.6509,7.968c-2.4333,0.4293-4.1644,2.6153-4.0262,5.0845  c0.1726,3.0771,1.4252,5.4775,3.6225,6.9425c3.5762,2.3847,8.2865,5.6206,10.146,6.9017c0.3142,0.2164,0.4903,0.5734,0.4701,0.955  l-0.1229,2.3365c-0.0821,1.5516,0.5965,3.054,1.8152,4.0184l6.1153,4.8382c0.8818,0.6978,2.0089,1.048,3.1361,0.9698l0.6349-0.0408  c0.6875,0,1.2826,0.5134,1.3839,1.1945l0.6713,4.5096c0.149,0.9993-0.3108,1.9868-1.1714,2.5155L10.3955,65.9772  c-0.8655,0.5326-1.317,1.4886-1.1783,2.4958s0.8326,1.8053,1.8098,2.0837l76.7702,21.8484c0.2213,0.063,0.4465,0.0949,0.6693,0.0949  c0,0,0,0,0.0005,0c0.9767,0,1.8348-0.6064,2.186-1.5452C91.0035,90.0175,90.7483,89.0246,89.9875,88.3631z M88.7664,90.2491  c-0.0113,0.028-0.1338,0.3015-0.418,0.2183L11.5787,68.619c-0.2892-0.0821-0.3526-0.3221-0.3659-0.4215  c-0.0138-0.0988-0.0182-0.3467,0.238-0.5041l28.9301-17.7838c1.5486-0.9526,2.3763-2.7299,2.1088-4.5288l-0.6713-4.5096  c-0.2479-1.6603-1.6991-2.9118-3.3766-2.9118c-0.0792,0-0.1593,0.0029-0.24,0.0084l-0.5351,0.0374  c-0.63,0.0403-1.255-0.152-1.7458-0.54l-6.1153-4.8382c-0.7077-0.5596-1.1016-1.4321-1.0539-2.3325l0.1229-2.3365  c0.0566-1.0706-0.4569-2.1132-1.3391-2.7205c-1.8629-1.2831-6.583-4.5259-10.171-6.9184c-1.673-1.1154-2.5912-2.9251-2.7284-5.3791  c-0.0811-1.4513,0.9354-2.7358,2.365-2.9881l2.2179-0.3915c1.3657-0.239,2.7279,0.4701,3.3284,1.6819l7.8572,15.8511  c1.0849,2.1879,3.2748,3.5467,5.715,3.5467c0.3885,0,0.78-0.0359,1.1636-0.1067l2.4614-0.4559  c0.5793-0.1087,1.1695,0.0246,1.6445,0.361l12.477,8.8236c0.601,0.4249,0.9423,1.0908,0.9354,1.827  c-0.0064,0.7357-0.3585,1.3957-0.9668,1.8098L35.202,55.5937c-0.9777,0.6659-1.436,1.7999-1.1955,2.9581  c0.2405,1.1586,1.1114,2.0163,2.2735,2.2391l43.4947,8.32c0.33,0.063,0.6,0.2592,0.7613,0.5533  c0.1633,0.298,0.1839,0.6521,0.0565,0.9718c-2.3355,5.8665-0.7126,11.4866,2.0975,14.0055c1.3224,1.1857,3.769,3.3225,5.9756,5.2419  C88.7147,89.9255,88.8451,90.0386,88.7664,90.2491z"/>
        </symbol>
        <symbol id="melbourne-circuit" viewBox="0 0 100 125">
            <path d="M91.4816,17.8614L86.643,8.6852c-0.5505-1.0446-1.9248-1.4916-2.9891-0.9609c-3.002,1.5045-11.4693,5.7485-14.8475,7.449  c-3.0059,1.5124-6.595,7.1069-9.0772,11.5342c-0.9861,1.7579-1.1634,3.8569-0.4851,5.7604l0.1426,0.4  c0.7802,2.1871,0.4515,4.6297-0.8772,6.5342l-3.9762,5.695c-3.1277,4.4812-9.6297,5.5891-10.3614,5.7005  c-1.0535,0.1614-4.2832,0.25-9.0921,0.25c-1.104,0-2.0683-0.0049-2.7277-0.0094c-0.199-0.0015-0.3802-0.1114-0.4752-0.2876  l-1.003-1.8683c-0.6733-1.2535-2.2743-1.8238-3.5921-1.2767c-2.7792,1.1579-9.5752,3.9931-12.6386,5.3059  c-4.5594,1.9535-4.8752,6.1554-4.8059,10.6569c0.0356,2.3653-0.7208,3.9837-1.3624,4.9248  c-0.6653,0.9772-0.6149,2.2505,0.1257,3.1683c2.5792,3.1941,4.1901,5.9728,4.9218,7.345c0.4198,0.7866,0.9465,1.5069,1.5663,2.1406  l5.596,5.7193c0.7782,0.7946,1.9287,1.1698,3.0455,0.9594l8.0139-1.503c0.3089-0.0574,0.6198,0.0604,0.8119,0.2995  c0.9426,1.1733,1.6653,2.4851,2.1485,3.9c0.404,1.1832,1.5139,1.9782,2.7614,1.9777c0.7554,0,1.4713-0.2936,2.0178-0.8262  l8.3911-8.1995c0.5149-0.504,0.9911-1.0584,1.4139-1.648c1.5941-2.2262,5.5317-7.6847,7.6554-10.2782  c0.8198-1.0005,2.0386-1.5074,3.6238-1.5074c0.6376,0,1.3139,0.0812,2.0099,0.2416c1.1347,0.2634,2.3663-0.2139,3.0406-1.1777  l6.5684-9.4093l0.8098,0.5592l-4.944,7.1611l-1.3202,1.9121l2.9745-1.3345l-0.1438-0.9812l4.8438-7.0158l-1.6399-1.1322  l15.4077-22.0718c0.6594-0.9455,0.901-2.0891,0.6792-3.2213c-0.2208-1.1297-0.8743-2.096-1.8406-2.7208  c-1.1168-0.7233-2.3168-1.4277-3.5653-2.0931c-0.1238-0.0663-0.1485-0.1767-0.1525-0.2371  c-0.004-0.0733,0.0129-0.1767,0.1228-0.2535l6.6881-4.701C91.9291,22.2847,92.5202,19.8322,91.4816,17.8614z M88.94,21.906  l-6.6881,4.701c-0.6634,0.4663-1.0297,1.2277-0.9802,2.0366c0.0495,0.8094,0.5059,1.5208,1.2218,1.9025  c1.199,0.6391,2.3485,1.3139,3.4188,2.0059c0.499,0.3233,0.8376,0.8238,0.9515,1.4089c0.1158,0.5866-0.0099,1.1797-0.3525,1.6703  L63.9559,67.9436c-0.2069,0.2951-0.5743,0.4431-0.9228,0.3634c-0.8446-0.1955-1.6743-0.2941-2.4653-0.2941  c-2.1911,0-3.9871,0.7782-5.1921,2.2505c-2.1614,2.6396-6.1307,8.1401-7.7356,10.3822c-0.3535,0.4936-0.7515,0.9569-1.1832,1.3782  l-8.3901,8.1995c-0.2119,0.2059-0.4436,0.249-0.602,0.249c-0.2931,0-0.6891-0.1584-0.8416-0.6054  c-0.5594-1.6381-1.396-3.1574-2.4871-4.5149c-0.5475-0.6812-1.3624-1.0713-2.2366-1.0713c-0.1762,0-0.3535,0.0158-0.5297,0.049  l-8.0139,1.503c-0.4465,0.0846-0.9099-0.0658-1.2218-0.3847l-5.596-5.7188c-0.4851-0.496-0.898-1.0604-1.2267-1.6767  c-0.7644-1.4356-2.4485-4.3401-5.1327-7.6653c-0.1752-0.2168-0.1871-0.5198-0.0287-0.752c0.8069-1.1832,1.7584-3.2015,1.7149-6.0975  c-0.0733-4.7639,0.4604-7.4272,3.5762-8.7629c3.0554-1.3089,9.8436-4.1411,12.6208-5.2975  c0.3762-0.1584,0.8337,0.0069,1.0257,0.3648l1.002,1.8668c0.4455,0.8307,1.3069,1.3505,2.2485,1.3569  c0.6634,0.0045,1.6327,0.0094,2.7416,0.0094c5.0505,0,8.2129-0.0921,9.398-0.2728c0.8198-0.1252,8.1069-1.3708,11.7188-6.545  l3.9762-5.695c1.703-2.4411,2.1238-5.5718,1.1238-8.3762l-0.1426-0.4c-0.4812-1.35-0.3554-2.8396,0.3436-4.0866  c3.2653-5.8238,6.2614-9.7292,8.2198-10.7153c3.3782-1.6995,11.8436-5.9426,14.9396-7.4698c0.0634,0,0.1475,0.0302,0.1921,0.1158  l4.8386,9.1767C90.2519,19.8778,89.9311,21.2099,88.94,21.906z"/>
        </symbol>
        <symbol id="suzuka-circuit" viewBox="0 0 100 125">
            <path d="M90.9909,10.1173C88.5928,7.9541,86.5319,7.5,85.2254,7.5c-0.6681,0-1.3089,0.1127-1.9043,0.3347l-19.062,7.1135  L63.8504,13.83l7.8838-2.8812l2.1051-0.7693l-3.0854-0.6076l-0.4338,0.8525l-7.724,2.8228l0.7466,2.0429l-10.8655,4.0547  c-0.4174,0.1552-0.8299,0.3238-1.2363,0.5057l-4.1248,1.8423c-1.1379,0.5076-2.1569,1.1585-3.0279,1.9339  c-3.6201,3.2194-2.8207,6.5253-1.5987,9.919l-0.9531,0.3558c-0.9517,0.3553-1.4731,1.3963-1.1876,2.3704  c0.5811,1.9793,1.742,5.6567,2.9897,8.0438c0.5215,0.999,1.2124,2.6459,2.0533,4.8941c1.0501,2.8097,0.8438,5.8682-0.552,8.4869  l-9.8493-1.3944c-1.3122-0.1858-2.5385-0.8161-3.4534-1.7749l-1.9282-2.0204c-0.7822-0.8189-2.2018-0.8414-3.0112-0.0497  c-0.7612,0.7464-0.8471,1.9478-0.2006,2.7935c1.3561,1.7778,4.5718,5.9909,5.4065,7.0735c0.254,0.4236,0.8514,2.8938,0.5706,4.5044  c-0.0468,0.2698-1.2134,6.647-6.7798,10.9003c-1.519,1.1618-4.4256,2.3198-5.4456,2.4315l-8.0758,0.8839  c-1.9497,0.2139-3.5145,1.6503-3.8937,3.5747l-0.4847,2.4602c-0.2641,1.3385,0.0812,2.7094,0.946,3.7619  c0.8667,1.0539,2.1374,1.6584,3.4859,1.6589c0.2731,0,0.5501-0.0253,0.8228-0.075c1.6713-0.3056,3.1177-0.9025,4.2981-1.773  c2.9563-2.1803,9.3063-7.2807,11.2174-8.963c0.5066-0.446,0.9813-0.9388,1.4211-1.4798l15.357-19.6002  c0.2087-0.2564,0.4083-0.5224,0.5959-0.7955l3.1979,0.4527c1.0286,0.1423,1.9836-0.4785,2.2816-1.4517l1.7754-5.809  c0.3515-1.1479,0.1834-2.3871-0.4603-3.3999c-0.5893-0.9259-1.7501-2.8021-3.9362-6.4823  c-3.8225-6.4336,0.1242-10.7714,2.2443-13.1016l0.1232-0.1356c0.7593-0.8366,1.7076-1.0119,2.369-1.0119  c1.2263,0,2.5815,0.6012,3.3732,1.4961c1.3643,1.5419,2.7104,2.2295,4.3645,2.2295c0.5759,0,1.1981-0.0845,1.9015-0.2583  c2.3045-0.5692,2.9119-1.9965,3.8316-4.1568c0.1872-0.4393,0.3935-0.9235,0.6365-1.4564c0.5768-1.264,1.4875-1.7563,3.2486-1.7563  c0.6972,0,1.4488,0.0745,2.2448,0.1538c0.361,0.0358,0.7249,0.0716,1.0892,0.1012c3.1975,0.2693,4.2814-2.4277,5.0053-4.1725  c0.17-0.4107,0.3309-0.8022,0.5076-1.1336c0.4565-0.8543,3.4682-1.4517,5.6672-1.8881c1.0959-0.2173,2.2286-0.4417,3.2333-0.7091  c2.0013-0.532,3.3679-1.7444,3.7499-3.325C92.624,12.6047,92.1394,11.154,90.9909,10.1173z M28.3579,78.9886  c-0.3605,0.4431-0.7593,0.8576-1.1852,1.2325c-1.8862,1.6599-8.1612,6.6996-11.0865,8.857  c-0.9388,0.6924-2.1125,1.1709-3.4878,1.4225c-0.9431,0.1733-1.8528-0.1795-2.4468-0.902  c-0.4918-0.5983-0.6881-1.3791-0.5382-2.1412l0.4847-2.4602c0.2135-1.0811,1.0926-1.8886,2.188-2.0084l8.0758-0.8839  c1.4435-0.1581,4.6291-1.4521,6.4202-2.8221c6.1671-4.7121,7.4669-11.8181,7.5195-12.1184c0.351-2.0166-0.3228-5.2174-0.9288-6.0057  c-0.8528-1.1088-4.0656-5.3181-5.4213-7.095c-0.0482-0.063-0.0415-0.1533,0.0153-0.2092c0.0387-0.0377,0.0821-0.0458,0.1122-0.0458  c0.031,0,0.0764,0.0086,0.1151,0.0492l1.9277,2.0199c1.2172,1.2754,2.8489,2.1144,4.5947,2.3613l8.9105,1.2611L28.3579,78.9886z   M90.3859,13.5387c-0.2082,0.8619-1.0653,1.5524-2.3513,1.8948c-0.9441,0.2507-2.0462,0.4694-3.1115,0.6809  c-3.2834,0.6513-6.1189,1.2139-7.0119,2.8847c-0.213,0.3992-0.3954,0.8395-0.5888,1.3055c-0.7893,1.902-1.4306,3.0967-3.0404,2.973  c-0.3524-0.0287-0.7053-0.064-1.0548-0.0984c-0.808-0.0802-1.6436-0.1633-2.4377-0.1633c-1.5901,0-3.8411,0.3008-5.0278,2.9  c-0.2512,0.5501-0.4637,1.0496-0.6566,1.5023c-0.9078,2.1316-1.1986,2.7027-2.5012,3.0246c-1.9616,0.4837-2.963,0.1791-4.332-1.3686  c-1.1585-1.3098-3.0575-2.156-4.8382-2.156c-1.5152,0-2.835,0.5716-3.8168,1.6527l-0.1218,0.1342  c-2.1073,2.316-7.0415,7.7386-2.4797,15.4171c1.7654,2.9716,3.1005,5.1696,3.9677,6.5329c0.3367,0.5296,0.424,1.1776,0.2402,1.7783  l-1.7759,5.8095c-0.0181,0.0602-0.0735,0.0879-0.1175,0.0879l-2.3585-0.3324l-0.0912-0.0129  c1.3729-2.9682,1.5085-6.3429,0.3433-9.4606c-0.8686-2.3236-1.5925-4.0441-2.1517-5.1152  c-1.2139-2.3226-2.3948-6.1509-2.8517-7.6756l0.9531-0.3558c1.0033-0.3744,1.5228-1.4984,1.158-2.5051  c-1.1312-3.1287-1.6689-5.3611,1.0572-7.7854c0.7211-0.6418,1.5706-1.1833,2.5251-1.6092l4.1253-1.8423  c0.3686-0.1647,0.7421-0.318,1.1212-0.4589L84.0049,9.6675c1.5763-0.5878,3.6621,0.0855,5.6758,1.902  C90.288,12.1176,90.5516,12.8539,90.3859,13.5387z"/>
        </symbol>
        <symbol id="watkins-glen-circuit" viewBox="0 0 100 125">
            <path d="M91.7596,23.2949c-0.7276-1.3021-2.1073-2.1112-3.6018-2.1112c-1.0438,0-2.0405,0.3938-2.8064,1.1086L72.7931,34.0189  c-1.1204,1.0463-2.7554,1.4405-4.2312,1.0163c-1.688-0.4851-2.6984-2.2614-2.2565-3.9484l2.9125-10.5821  c0.5263-1.9124,0.6795-3.8827,0.4556-5.8554c-0.4556-4.0177-3.8591-7.0475-7.9165-7.0475c-1.9551,0-3.7737,0.7031-5.2584,2.0327  L21.0872,41.3531c-1.3139,1.1769-2.3331,2.5722-3.0284,4.1478c-0.6825,1.5471-2.2595,5.4675-2.1652,8.4404  c0.0118,0.3594,0.0295,0.7345,0.055,1.115c0.2661,4.1743-1.3355,8.1704-4.3943,10.9645l-0.9083,0.8298  c-3.1413,2.8703-4.0427,7.5503-2.1927,11.3814l5.824,12.0624c0.6275,1.2981,1.9138,2.1038,3.3563,2.1038  c0.7699,0,1.5112-0.2357,2.1436-0.682L35.4977,80.619l0.5985,0.8269l-6.9912,5.0604l-1.8668,1.3512l3.2225-0.2639l0.1901-0.965  l6.8494-4.9577l-1.181-1.6318l14.1049-9.9568c1.2805-0.9029,2.1318-2.3115,2.338-3.8645c0.2052-1.5535-0.2524-3.1354-1.253-4.3403  l-5.443-6.5511c-1.6782-2.0199-1.741-4.8906-0.1532-6.9817l8.7129-11.4693c0.6599-0.8685,1.7047-1.3865,2.7947-1.3865l0.1601,0.0034  c1.1666,0.0525,2.1721,0.8823,2.447,2.0174l2.8909,11.9696c0.4105,1.7012,1.9237,2.8894,3.6784,2.8894  c0.98,0,1.9109-0.381,2.6208-1.0723l21.5147-20.951C92.6247,28.5023,93.047,25.603,91.7596,23.2949z M89.3293,28.9049  l-21.5137,20.951c-0.4262,0.4149-0.8975,0.5018-1.2186,0.5018c-0.6726,0-1.4995-0.4227-1.7243-1.3507l-2.8909-11.9696  c-0.4831-1.9998-2.2556-3.4614-4.3108-3.5542c-1.794-0.0874-3.5576,0.7433-4.6456,2.1755L44.3124,47.128  c-2.1583,2.8403-2.0729,6.7402,0.2062,9.4837l5.444,6.5511c0.653,0.7865,0.9397,1.7778,0.8052,2.7912  c-0.1335,1.0134-0.6677,1.8957-1.5034,2.4853l-30.6469,21.634c-0.8415,0.5911-2.0886,0.2592-2.5295-0.6535l-5.824-12.0619  c-1.4661-3.0372-0.7512-6.7475,1.739-9.0227l0.9083-0.8298c3.5105-3.2076,5.3487-7.7913,5.0443-12.5794  c-0.0236-0.3594-0.0412-0.7109-0.052-1.0482c-0.056-1.7769,0.6903-4.6054,1.9953-7.5655c0.5784-1.3119,1.4297-2.4765,2.5295-3.4614  l35.4113-31.7182c1.1106-0.9942,2.4647-1.5201,3.917-1.5201c2.5796,0,5.5304,1.8446,5.9192,5.2633  c0.1944,1.7165,0.0609,3.431-0.3967,5.0954L64.363,30.5653c-0.7188,2.746,0.9152,5.6183,3.6431,6.4024  c2.1505,0.6186,4.5258,0.0452,6.1598-1.4788l12.5583-11.7265c0.3918-0.3658,0.9014-0.5676,1.4337-0.5676  c0.7777,0,1.468,0.4041,1.8461,1.0806C90.8494,25.7906,90.5715,27.6946,89.3293,28.9049z"/>
        </symbol>
        <symbol id="buenos-aires-circuit" viewBox="0 0 100 125">
            <path d="M92.3415,85.6044c-2.4315-8.9583-6.6251-24.5101-7.3908-28.0179c-0.8971-4.1119-4.5971-6.3979-7.3015-7.7596  c-0.5459-0.275-1.156-0.42-1.7642-0.42c-1.4671,0-2.8048,0.8068-3.4892,2.1064l-1.2333,2.3412  c-0.278,0.5278-0.8008,0.8424-1.3989,0.8424c-0.5198,0-0.9895-0.2454-1.2875-0.6734c-4.2739-6.1229-14.4485-20.7399-16.6371-24.2151  c-1.3367-2.1214-1.7993-4.1003-1.3036-5.572c0.3562-1.0552,1.2122-1.864,2.4787-2.3397c1.2102-0.4546,3.3888-0.723,6.301-0.7757  l0.1064-0.001c2.6984,0,4.9884,1.8389,5.5695,4.4711l1.1079,5.0311c0.2077,0.9448,0.9102,1.7125,1.8334,2.003  c1.1269,0.3547,1.991,1.29,2.2569,2.4405l1.5424,6.6738c0.5028,2.1751,2.4114,3.6944,4.6422,3.6944  c0.3231,0,0.6493-0.0336,0.9694-0.0998c1.1018-0.2283,2.0401-0.8781,2.6402-1.8299c0.6011-0.9513,0.7837-2.0768,0.5168-3.1691  l-4.6914-19.1735C73.9954,13.753,67.316,8.6185,59.6422,8.8363c-13.3336,0.3738-36.2817,1.0316-40.1653,1.2353  c-5.9006,0.3091-8.0963,1.6944-9.7862,6.1766c-0.7506,1.99-0.4737,4.2759,0.7576,6.2719c1.1871,1.9212,3.0838,3.2815,4.8329,3.4646  c1.6558,0.1736,4.3763,0.3046,6.3662,0.3838c1.7361,0.0768,3.438-0.3588,4.9222-1.2253l3.2835-1.9152  c1.0426-0.6081,2.2278-0.9292,3.429-0.9292c2.2147,0,4.297,1.0793,5.5715,2.8876c2.7857,3.9533,7.735,10.9834,9.5714,13.6447  c0.6804,0.9844,0.9172,2.2012,0.7035,3.6176c-0.2599,1.731-1.7401,2.6367-3.0687,2.6367c-0.6994,0-1.3638-0.2388-1.9217-0.6904  L29.9666,32.936c-1.3517-1.0918-3.0336-1.7356-4.7365-1.8118c-0.7446-0.0331-1.4701-0.0492-2.1786-0.0492  c-4.2709,0-8.3301,0.5735-12.0641,1.704c-1.9418,0.5876-3.2684,2.2107-3.4631,4.2358c-0.1957,2.0396,0.8068,3.8991,2.6171,4.853  l56.1765,29.5993l-0.4795,0.9237l-7.828-4.0636l-2.0902-1.085l1.7191,2.8219l0.9684-0.269l7.6692,3.9812l0.95-1.8301l4.7343,2.4945  c1.9016,1.0015,2.6954,1.8434,3.0256,2.3723c0.296,0.4752,0.8771,1.2805,1.6819,2.3944c1.3929,1.9292,3.3005,4.5715,5.2533,7.5955  c0.8981,1.3894,2.1816,2.6232,3.8153,3.6668c0.7175,0.4586,1.5324,0.701,2.3542,0.701c1.3597,0,2.6743-0.6568,3.5173-1.7581  C92.4368,88.3285,92.7047,86.9406,92.3415,85.6044z M89.9762,88.1639c-0.7295,0.9538-2.0883,1.2418-3.1329,0.5735  c-1.3828-0.8836-2.4576-1.9102-3.1952-3.0502c-1.9809-3.0682-3.9859-5.8454-5.3136-7.6828  c-0.7506-1.0406-1.3447-1.863-1.6036-2.2795c-0.6774-1.0833-1.9598-2.1269-3.8123-3.1028L11.0987,40.0493  c-1.2634-0.6658-1.6177-1.9031-1.5283-2.8384c0.0883-0.9237,0.6633-2.0567,2.013-2.4651c3.5404-1.0717,7.3988-1.6156,11.4681-1.6156  c0.6784,0,1.3738,0.0151,2.0863,0.0472c1.2684,0.0567,2.5238,0.5389,3.5364,1.3572l14.1715,11.4585  c0.9282,0.7506,2.0391,1.1475,3.2142,1.1475c2.574,0,4.7195-1.8449,5.1018-4.3863c0.293-1.9498-0.0582-3.6628-1.0446-5.0908  c-1.8424-2.6688-6.7947-9.7044-9.5835-13.6612c-1.6588-2.3537-4.3693-3.7586-7.2513-3.7586c-1.5645,0-3.1079,0.418-4.4646,1.2092  l-3.2835,1.9152c-1.147,0.6693-2.4726,0.9955-3.8043,0.9473c-1.9598-0.0783-4.6322-0.2067-6.2338-0.3748  c-1.1049-0.1154-2.4606-1.1435-3.2985-2.5002c-0.5258-0.852-1.3005-2.565-0.584-4.4671c1.3005-3.4475,2.569-4.5665,7.9718-4.8494  c3.8615-0.2022,26.7906-0.8595,40.1151-1.2333c6.6482-0.1575,12.5298,4.292,14.1113,10.7601l4.6914,19.174  c0.1345,0.5454,0.0432,1.1074-0.2569,1.583c-0.301,0.4757-0.7697,0.8003-1.3196,0.9142c-1.4461,0.298-2.865-0.6282-3.1921-2.0446  l-1.5424-6.6738c-0.4295-1.857-1.8254-3.3658-3.6427-3.9378c-0.2228-0.0707-0.3934-0.2564-0.4436-0.4847l-1.1079-5.0316  c-0.7898-3.5825-3.9056-6.0843-7.5765-6.0843l-0.1445,0.001c-3.1881,0.0582-5.5383,0.3633-6.9854,0.9072  c-1.8635,0.6994-3.144,1.9468-3.7029,3.6071c-0.7075,2.0988-0.1846,4.6307,1.5113,7.3231  c2.2117,3.5128,12.4093,18.1614,16.6903,24.2964c0.6884,0.9869,1.7722,1.5524,2.9734,1.5524c1.3537,0,2.587-0.7431,3.2172-1.9393  l1.2333-2.3412c0.4656-0.8821,1.6146-1.2609,2.5108-0.8093c2.5258,1.2719,5.5153,3.1445,6.2187,6.3627  c0.7747,3.5514,4.9784,19.1409,7.4149,28.1172C90.5552,86.8669,90.4187,87.5844,89.9762,88.1639z"/>
        </symbol>
        <symbol id="yas-marina-circuit" viewBox="0 0 100 125">
            <path d="M91.6244,9.1667c-0.3361-1.1866-1.6395-1.923-2.8365-1.5838l-68.8618,19.518c-1.3038,0.3689-2.5406,0.9329-3.6766,1.6752  c-0.5218,0.3416-0.8609,0.8927-0.9304,1.5123c-0.0695,0.6201,0.1395,1.2328,0.573,1.6812l1.206,1.2472  c0.1867,0.1931,0.2031,0.497,0.0377,0.706c-1.0005,1.2661-2.9452,3.8772-4.7267,7.1357c-1.5317,2.8023-2.4393,5.8597-2.698,9.0885  L8.3735,66.8875c-0.1708,2.1305-0.0839,4.2818,0.2587,6.394l2.7005,16.6447c0.1951,1.204,1.2234,2.0774,2.4443,2.0774  c0.494,0,0.9741-0.149,1.3872-0.43l1.0998-0.7135l0.7994,0.9245c0.3927,0.4548,0.9632,0.7155,1.564,0.7155  c0.4523,0,0.8823-0.144,1.2437-0.4161l5.967-4.4943c0.4354-0.3282,0.7115-0.8277,0.7577-1.3708  c0.0462-0.5427-0.1415-1.0814-0.5144-1.4771L15.3667,73.3445c-0.2229-0.2373-0.3898-0.5248-0.4826-0.8307  c-0.3679-1.2154-1.1072-4.5018-0.0348-8.7682c0.0794-0.3163,0.2428-0.6181,0.4722-0.8733l3.553-3.9561  c0.0775-0.0859,0.148-0.0492,0.1917-0.004l4.0107,4.114c0.361,0.3704,0.8649,0.5834,1.3823,0.5834c0.0005,0,0.0005,0,0.0005,0  c0.4141,0,0.8093-0.1301,1.1425-0.3754l5.325-3.9119c0.4364-0.3207,0.7189-0.8133,0.776-1.352  c0.0571-0.5387-0.1162-1.0799-0.4761-1.485L20.0978,43.956c-0.1331-0.1504-0.1658-0.3654-0.0834-0.5481l4.3325-9.5636  c0.3823-0.8431,1.1703-1.1434,1.78-1.1434c0.5541,0,1.065,0.2289,1.4389,0.6445l20.7607,23.0511  c0.6087,0.6762,1.4796,1.064,2.3892,1.064c0.9384,0,1.8276-0.4081,2.4383-1.1196l7.1064-8.2697  c1.3167-1.5322,1.7824-3.6111,1.2457-5.5603c-1.3058-4.7421-1.3937-7.1417-1.0719-7.7563c0.9826-1.8778,2.1538-3.5336,6.5533-4.7808  c4.0852-1.1578,6.0568-2.7879,7.6407-4.0976c0.2666-0.2204,0.5248-0.4334,0.7835-0.6365c1.4875-1.1653,6.3959-5.7237,8.437-7.6287  c0.5839-0.5447,0.8118-1.3609,0.5938-2.131l-0.4717-1.6638l0.0616-0.1097l6.0087-1.703  C91.2589,11.6576,91.9694,10.3851,91.6244,9.1667z M89.4864,10.047l-6.0082,1.7025c-0.5457,0.1544-0.9985,0.5124-1.275,1.0079  c-0.2766,0.4955-0.3436,1.0685-0.1887,1.6136l0.4464,1.7527c-1.5774,1.4726-6.8383,6.3676-8.3035,7.515  c-0.2726,0.2135-0.5442,0.4379-0.8247,0.6698c-1.5123,1.2502-3.2263,2.6672-6.9004,3.7089c-4.6622,1.3212-6.4411,3.197-7.8,5.7942  c-0.2646,0.5049-1.069,2.0416,0.9131,9.2394c0.357,1.2954,0.0477,2.6766-0.8272,3.6945l-7.1069,8.2702  c-0.4483,0.5218-1.3127,0.5332-1.7735,0.0199L38.2768,42.199l0.8269-0.7433l5.8346,6.4905l1.5579,1.7331l-0.6091-3.2124  l-0.9906-0.0883L39.18,40.0197l-1.5838,1.4237l-8.5192-9.459c-0.7646-0.8495-1.8127-1.3172-2.9502-1.3172  c-1.5868,0-2.9785,0.8957-3.6324,2.338l-4.3325,9.5641c-0.4131,0.9131-0.2502,1.987,0.4151,2.7367l11.0541,12.4448l-5.1606,3.7913  l-3.9482-4.05c-0.8396-0.8619-2.3574-0.8297-3.1607,0.0645l-3.5535,3.9566c-0.4493,0.5005-0.7711,1.1007-0.9309,1.7363  c-1.1534,4.5882-0.4573,8.1426,0.0606,9.8536c0.1827,0.6042,0.5104,1.1693,0.9468,1.634L24.5122,86.042l-5.8647,4.4174  c-0.005,0.0035-0.0104,0.007-0.0204,0.007l-0.8247-0.9364c-0.3932-0.4543-0.9632-0.715-1.5645-0.715  c-0.4166,0-0.8187,0.1241-1.1633,0.3585l-1.0556,0.7189c-0.2413,0.1658-0.6221,0.0606-0.6792-0.2919l-2.7-16.6447  c-0.3168-1.9508-0.3972-3.9382-0.2393-5.9064l1.3376-16.7405c0.2353-2.9413,1.0615-5.7252,2.4552-8.2752  c1.71-3.127,3.5773-5.6338,4.538-6.8497c0.7944-1.0054,0.7204-2.4587-0.1718-3.3812l-1.1976-1.3247  c0.9637-0.6296,2.0128-1.1077,3.118-1.421L89.4144,9.5291c0.0958,0,0.216,0.0601,0.2532,0.1916  C89.7074,9.8608,89.6259,10.0073,89.4864,10.047z"/>
        </symbol>
        <symbol id="adelaide-circuit" viewBox="0 0 100 125">
            <path d="M91.7187,52.6657L39.5804,8.2933c-0.927-0.789-2.287-0.9803-3.3965-0.4709l-0.4093,0.1879  c-0.2199,0.1006-0.4537,0.1608-0.6953,0.1795l-24.9099,1.9197c-1.5898,0.1228-2.7831,1.5158-2.6608,3.1056l0.93,12.0609  c0.144,1.8748,1.1006,3.5819,2.6243,4.6835l2.8295,2.0474c0.3314,0.2401,0.5395,0.6115,0.571,1.0188l0.999,12.9658  c0.0769,1.0109,0.931,1.8023,1.9448,1.8023l10.9845-0.9098l0.7949,10.3222c0.0789,1.0094,0.933,1.8003,1.9448,1.8003l19.7855-1.5188  c1.5789-0.1272,3.1598,0.2712,4.4971,1.1174l4.0455,2.5578c0.7831,0.4956,1.7022,0.7254,2.6352,0.6548l0.5888-0.0434  c0.2446,0,0.4724,0.1105,0.6233,0.3028l12.7478,16.2016l-0.7795,0.6126l-5.3558-6.8152l-1.4301-1.8198l0.3928,3.2235l0.976,0.1526  l5.2472,6.677l1.574-1.237l9.7041,12.3334c0.5276,0.6706,1.3077,1.0548,2.1391,1.0548c0.8028,0,1.5671-0.3432,2.0977-0.9423  c0.5188-0.5848,0.7505-1.3462,0.6539-2.144l-1.076-8.8474c-0.1884-1.5454-0.8304-2.9537-1.858-4.0726  c-1.6085-1.7525-3.5405-3.3231-5.7418-4.6683c-2.1174-1.2934-3.8374-3.1756-4.9735-5.4429l-2.6164-5.222  c-0.3028-0.6041-0.1499-1.3265,0.3718-1.7569l2.3748-1.9606c1.1529-0.9522,2.6381-1.4389,4.1352-1.3472l8.2615,0.5l0.142,0.0044  c0.932,0,1.7436-0.569,2.0681-1.4497C92.6842,54.2328,92.4317,53.2727,91.7187,52.6657z M90.4652,54.4137  c-0.0316,0.0843-0.0779,0.1031-0.1913,0.1267l-8.2615-0.5c-2.0208-0.1233-3.9981,0.5296-5.5435,1.8053l-2.3748,1.9606  c-1.2515,1.0331-1.6184,2.7683-0.8915,4.2195l2.6164,5.222c1.3057,2.6056,3.2851,4.7708,5.726,6.262  c2.0405,1.2461,3.8255,2.6963,5.3078,4.3103c0.7397,0.8062,1.2032,1.8265,1.3393,2.9503l1.076,8.8474  c0.0276,0.2219-0.0266,0.4108-0.1598,0.5612c-0.285,0.323-0.8403,0.356-1.1371-0.0217L64.8946,60.8286  c-0.5365-0.6825-1.3422-1.074-2.2111-1.074c-0.072,0-0.144,0.003-0.217,0.0084l-0.5266,0.0409  c-0.4971,0.037-0.9852-0.0853-1.4014-0.3481L56.493,56.898c-1.7042-1.0774-3.7052-1.5814-5.7319-1.4241l-19.5606,1.5765  l-0.7949-10.3222c-0.0789-1.0099-0.933-1.8008-1.9448-1.8008l-10.9845,0.9103l-0.999-12.9673c-0.0769-1-0.5878-1.9113-1.4014-2.4996  l-2.8295-2.0474c-1.0414-0.7535-1.6953-1.9207-1.7939-3.2022l-0.93-12.0609c-0.0365-0.4798,0.3235-0.8999,0.8028-0.9369  l24.9099-1.9197c0.4783-0.037,0.9428-0.1568,1.3807-0.3575l0.4093-0.1879c0.4083-0.1864,0.9063-0.1174,1.2456,0.1731L90.409,54.2042  C90.4396,54.2298,90.5106,54.2905,90.4652,54.4137z"/>
        </symbol>
        <symbol id="yeongam-circuit" viewBox="0 0 100 125">
            <path d="M92.3047,13.279c-0.2962-0.6572-0.8961-1.1286-1.6043-1.2615l-3.2185-0.6043c-1.9109-0.3585-3.9577,0.1113-5.5193,1.2669  L23.3192,56.0579c-0.1211,0.0888-0.26,0.0569-0.3458-0.0402c-0.0471-0.052-0.0647-0.1123-0.0559-0.1908l4.8395-43.3493  c0.1064-0.9471-0.3703-1.8466-1.2134-2.291c-0.4091-0.2153-0.8681-0.3296-1.3272-0.3296c-1.1953,0-2.2719,0.7544-2.68,1.8766  l-1.9114,5.255c-0.1535,0.4203-0.5989,0.4939-0.8878,0.3345l-3.1621-1.7294c-0.3433-0.1874-0.7293-0.2869-1.1163-0.2869  c-1.161,0-2.1262,0.8328-2.2954,1.9801c-0.6366,4.3186-1.6941,11.9799-1.621,14.7727c0.0451,1.7152,0.7038,4.2873,1.9575,7.6446  c0.6739,1.8045,0.2188,3.8429-1.1595,5.1937c-0.7303,0.7161-1.4803,1.4847-2.2292,2.2851  c-2.7236,2.912-3.3794,7.1379-1.6701,10.7665l4.0067,8.5059c0.8083,1.7162,2.4774,2.9129,4.3549,3.1219  c0.8063,0.0902,1.7167,0.1354,2.7065,0.1354c2.1601,0,4.3343-0.2148,5.8274-0.3983c0.1383,0,0.2237,0.0755,0.2624,0.1207  c0.0456,0.0525,0.0956,0.1427,0.076,0.2712c-0.3522,2.2994-1.0236,7.0227-1.5651,12.827c-0.3556,3.8125,1.4096,6.4351,4.9715,7.3846  c0.5621,0.1496,1.1404,0.2256,1.7186,0.2256c2.9198,0,5.5193-1.8795,6.4689-4.6767l0.2178-0.6411  c0.4032-1.1865,1.5141-1.9835,2.7643-1.9835c0.3144,0,0.6254,0.0525,0.9241,0.156c2.5451,0.8819,5.5679,1.7589,7.6549,2.3391  c1.9712,0.5483,4.1239-0.1668,5.383-1.7794l6.5557-8.4029c0.5425-0.695,1.5617-0.9182,2.3675-0.5155  c1.4724,0.7382,3.1739,1.3567,5.0568,1.8398c0.2634,0.0672,0.5331,0.1015,0.8019,0.1015c1.7338,0,3.1518-1.363,3.2278-3.1032  c0.0731-1.6711,0.1746-3.4584,0.2418-4.5967c0.0652-1.0864-0.4601-2.1218-1.3714-2.7015c-3.5633-2.2675-5.4315-4.5644-5.5527-6.8279  c-0.131-2.4455,1.8359-4.5511,3.5094-5.8872c0.4694-0.3747,0.8721-0.8412,1.1963-1.3846l5.1152-8.5699l1.7804,1.0673l4.3429-7.2448  l0.944-0.2725l-0.0155-3.23l-1.1836,1.9745l-4.4329,7.3947l-0.9205-0.5518l16.3124-27.3293  C92.5578,14.6984,92.6015,13.9362,92.3047,13.279z M90.463,14.2879l-21.943,36.7622c-0.2001,0.3365-0.4439,0.62-0.7239,0.8436  c-2.9281,2.3376-4.402,4.9533-4.2622,7.5646c0.1579,2.9483,2.3381,5.7798,6.4807,8.4156c0.2958,0.1883,0.4664,0.5278,0.4449,0.8868  c-0.0682,1.1472-0.1707,2.9463-0.2438,4.6291c-0.0334,0.7534-0.7848,1.3326-1.5239,1.1428  c-1.7441-0.4473-3.3107-1.0158-4.6556-1.6897c-0.5503-0.2757-1.1649-0.4213-1.7765-0.4213c-1.212,0-2.3327,0.5454-3.0753,1.4969  l-6.5557,8.4028c-0.7627,0.979-2.0649,1.4131-3.2602,1.08c-2.06-0.5729-5.0392-1.4371-7.5352-2.3018  c-0.5111-0.1771-1.0432-0.2668-1.5823-0.2668c-2.111,0-3.9861,1.3444-4.6664,3.3465l-0.2178,0.6415  c-0.6729,1.9815-2.5083,3.3132-4.5668,3.3132c-0.4037,0-0.8078-0.053-1.2012-0.1579c-2.6128-0.6965-3.7536-2.4161-3.4888-5.2569  c0.5371-5.7528,1.2022-10.432,1.5504-12.7092c0.104-0.6788-0.0917-1.3655-0.5371-1.8844c-0.4478-0.5214-1.0992-0.8206-1.7868-0.8206  c-0.0981,0-0.1972,0.0059-0.2982,0.0186c-1.3871,0.1731-3.4726,0.3796-5.5291,0.3796c-0.9157,0-1.7515-0.0412-2.4838-0.1226  c-1.1894-0.1329-2.2469-0.8922-2.7599-1.982l-4.0067-8.5058c-1.3567-2.8791-0.8382-6.2305,1.3194-8.5377  c0.7293-0.7794,1.4592-1.5273,2.1684-2.2228c1.9447-1.9055,2.5868-4.7831,1.6357-7.3312c-1.16-3.1042-1.7932-5.5228-1.8319-6.9942  c-0.0716-2.7403,1.0952-11.0019,1.6004-14.4269c0.0417-0.2884,0.3061-0.3085,0.4601-0.2237l3.1621,1.7294  c0.3875,0.2119,0.824,0.3237,1.263,0.3237c1.105,0,2.1007-0.6975,2.4774-1.7348l1.9114-5.255  c0.2031-0.5601,0.7921-0.6621,1.1821-0.4557c0.1069,0.0564,0.1673,0.1702,0.154,0.2904l-4.8395,43.3493  c-0.0731,0.6494,0.1241,1.2723,0.5542,1.7535c0.4336,0.4846,1.0526,0.7627,1.6985,0.7627c0.4812,0,0.9442-0.1545,1.3395-0.4463  l58.6439-43.3783c1.1193-0.8279,2.5863-1.1634,3.9537-0.9074l3.219,0.6043c0.0839,0.0157,0.1241,0.0701,0.1437,0.1128  C90.4929,14.1481,90.5072,14.2148,90.463,14.2879z"/>
        </symbol>
        <symbol id="dijon-prenois-circuit" viewBox="0 0 100 125">
            <path d="M90.5944,63.7044c-0.5361-1.9623-1.955-3.5637-3.796-4.2836c-1.2301-0.4803-2.7199-0.7151-4.5556-0.7151  c-1.9291,0-3.9863,0.2543-5.976,0.4999c-1.8753,0.2309-3.6463,0.45-5.2002,0.45c-1.1171,0-1.9936-0.1145-2.6794-0.3502  c-2.6207-0.899-4.4798-2.4465-5.1004-4.2465c-0.3047-0.8843-0.2558-1.7354,0.1345-2.336c0.7332-1.1279,3.8014-5.3812,6.5081-9.1337  c2.3649-3.279,4.5981-6.3751,5.1807-7.2535c1.2707-1.9144,2.1017-3.5265,1.2189-6.8524c-0.5219-1.9652-1.7383-2.9621-3.6145-2.9621  c-0.9777,0-2.02,0.269-2.94,0.5077c-2.6461,0.6848-10.2919,7.0236-12.4386,9.5024c-0.877,1.0134-3.5465,4.0978-6.3012,4.0978  c-0.6916,0-1.349-0.1829-2.0098-0.5595c-2.5189-1.437-2.5546-4.1252-2.4006-8.7531c0.0303-0.9107,0.0616-1.8557,0.0636-2.8241  c0.0127-5.9231-7.2447-9.5709-10.557-10.3251L35.5636,18.04c-2.5669-0.5723-6.4455-1.436-8.3208-3.8786  c-2.3272-3.0325-4.5678-5.3841-10.3643-5.7911c-1.4918-0.1096-3.0873,0.2661-4.8045,1.1005  c-2.3394,1.1347-3.955,3.2516-4.4323,5.8077c-0.4774,2.5541,0.2641,5.1093,2.0342,7.0109l32.6418,35.0704l-0.742,0.7006  l-5.9021-6.2516l-1.576-1.6693l0.6772,3.149l0.9777,0.0631l5.7825,6.1249l1.4653-1.3833l24.9283,26.783  c1.4791,1.5886,6.785,6.7722,12.9683,6.7722c2.7865,0,5.3382-1.0604,7.5842-3.1508C94.8727,82.5489,92.0882,69.1776,90.5944,63.7044  z M87.1164,87.0301c-1.8635,1.7354-3.9564,2.6148-6.2195,2.6148c-4.2704,0-8.7414-3.1685-11.5019-6.1344L11.1423,20.9238  c-1.3323-1.4311-1.8904-3.3553-1.5314-5.2775c0.3595-1.9242,1.5764-3.5187,3.3377-4.3736c1.2536-0.6085,2.4103-0.9166,3.4375-0.9166  c0.1174,0,0.2343,0.0039,0.3512,0.0117c4.9855,0.3512,6.7669,2.2127,8.916,5.0124c2.3189,3.0217,6.6255,3.9804,9.4751,4.6153  l0.5576,0.1242c2.4064,0.5488,9.0089,3.55,8.9987,8.3687c-0.002,0.9469-0.0328,1.8704-0.0626,2.7615  c-0.1443,4.3472-0.2812,8.4538,3.4101,10.5599c0.9582,0.5458,1.9682,0.8227,3.0027,0.8227c3.2898,0,6.0366-2.7341,7.816-4.7904  c2.2162-2.559,9.5338-8.3843,11.4256-8.8744c0.8041-0.2074,1.7158-0.4431,2.4382-0.4431c0.7943,0,1.3524,0.2465,1.6786,1.4732  c0.6544,2.4661,0.2357,3.4404-0.9523,5.2306c-0.561,0.8462-2.783,3.9266-5.1362,7.188c-2.853,3.9559-5.8033,8.0459-6.5629,9.2149  c-0.7293,1.122-0.8559,2.6089-0.3487,4.0811c0.8232,2.3869,3.1352,4.3873,6.3443,5.4888c0.899,0.3081,1.9877,0.4578,3.3294,0.4578  c1.6767,0,3.5074-0.226,5.4453-0.4647c1.9295-0.2387,3.9251-0.4852,5.7309-0.4852c1.5813,0,2.8324,0.1898,3.8263,0.5781  c1.2536,0.4901,2.2225,1.5906,2.5923,2.9454C89.7522,68.2277,92.8644,81.6812,87.1164,87.0301z"/>
        </symbol>
        <symbol id="interlagos-circuit" viewBox="0 0 100 125">
            <path d="M87.6024,49.3361l-4.4892-4.9668c-2.3207-2.568-5.6371-4.0402-9.0981-4.0402c-1.1323,0-2.2596,0.1572-3.3509,0.467  l-25.9262,7.3646c-0.6498,0.1847-1.3215,0.2783-1.9953,0.2783c-2.3007,0-4.4932-1.1033-5.8653-2.9514l-0.4395-0.5927  c-1.6995-2.2892-1.8176-5.3287-0.3013-7.743l4.8727-7.7626c0.2643-0.42,0.6568-0.4831,0.867-0.4831  c0.3574,0,0.8024,0.1822,0.9801,0.6928l1.4192,4.0838c0.7063,2.0324,2.6266,3.398,4.7781,3.398  c0.6458,0,1.2795-0.1231,1.8842-0.3659c2.2331-0.897,3.5301-3.2653,3.0836-5.6311c-0.3774-1.9998-0.882-4.8647-1.1413-7.1599  c-0.2183-1.9328,0.8425-5.113,2.9109-8.7257c0.3399-0.5942,1.1033-0.871,1.752-0.6252c0.6087,0.2298,0.9882,0.8405,0.9226,1.4852  c-0.2853,2.8028-0.4515,8.106,1.6404,12.1256c1.7575,3.3774,4.4437,5.0894,7.9848,5.0894c1.3411,0,2.7943-0.2448,4.4427-0.7484  c2.612-0.7984,9.3724-3.3134,13.1694-4.741c0.9846-0.3704,1.7641-1.1033,2.1941-2.0624c0.4315-0.9626,0.46-2.0354,0.0801-3.0215  c-1.2905-3.3464-3.87-7.8156-8.8318-10.1038c-4.0923-1.8872-9.5141-3.5246-13.3421-4.5658  c-4.249-1.1568-8.8814-0.3985-12.5501,2.0494c-4.0677,2.7142-8.0964,5.6486-11.974,8.7222  c-4.9137,3.894-8.9169,8.9735-11.5775,14.6886L22.546,48.8632l-1.8262-0.8544l-3.6531,7.8085l-0.93,0.3752l0.3528,3.2776  l0.9957-2.1282l3.7287-7.9701l0.8994,0.4208l-10.372,22.2831c-0.7419,1.5949-0.9626,3.3514-0.6377,5.0804  c0.403,2.14,2.4484,3.6347,4.6669,3.2598l1.712-0.2863c1.7881-0.2993,3.5246,0.6598,4.2505,2.2686  c0.6658,1.4767,1.5183,2.9184,2.5325,4.285C25.8779,88.8558,29.39,92.5,34.8013,92.5c3.2533,0,6.6918-1.3275,10.2204-3.9461  l41.7677-31.0002c1.2595-0.9356,2.0709-2.3673,2.2256-3.9286C89.1697,52.0633,88.6546,50.5,87.6024,49.3361z M85.567,55.9068  L43.7993,86.907c-3.1672,2.3507-6.1947,3.5426-8.998,3.5426c-4.5133,0-7.5068-3.1251-8.8894-4.9883  c-0.9271-1.249-1.704-2.563-2.3097-3.9061c-0.9676-2.1445-3.1131-3.5306-5.4659-3.5306c-0.3304,0-0.6638,0.028-0.9917,0.0826  l-1.7125,0.2863c-1.0968,0.1852-2.114-0.5541-2.3132-1.6159c-0.2453-1.306-0.0791-2.6326,0.4816-3.837l17.9599-38.585  c2.5264-5.4268,6.3274-10.25,10.9918-13.9468c3.834-3.0385,7.8171-5.9399,11.8388-8.6231c3.1787-2.122,7.1934-2.7782,10.8732-1.7771  c3.7529,1.0207,9.0581,2.6216,13.0217,4.4497c4.3381,1.9998,6.6237,5.987,7.7776,8.979c0.1817,0.472,0.1687,0.9851-0.0375,1.4452  c-0.2052,0.457-0.5762,0.8059-1.0452,0.9821c-3.7744,1.4192-10.4887,3.9171-13.0472,4.699c-1.4507,0.444-2.7082,0.6593-3.843,0.6593  c-2.7532,0-4.7701-1.3035-6.1657-3.9851c-1.8462-3.5471-1.682-8.3968-1.4202-10.9718c0.1602-1.5683-0.7604-3.0536-2.2376-3.6112  c-1.5678-0.5922-3.428,0.0791-4.2555,1.5243c-1.6369,2.8593-3.5156,6.9106-3.1692,9.9751c0.2663,2.3573,0.7799,5.2767,1.1639,7.31  c0.2658,1.4066-0.5056,2.8148-1.8331,3.3484c-0.3604,0.1447-0.7369,0.2178-1.1198,0.2178c-1.2795,0-2.4213-0.8119-2.8413-2.0204  l-1.4192-4.0838c-0.437-1.258-1.5818-2.0704-2.9169-2.0704c-1.0627,0-2.0359,0.5396-2.6035,1.4432l-4.8727,7.7626  c-1.9693,3.1352-1.8156,7.0823,0.3915,10.0557l0.4395,0.5927c1.757,2.3668,4.5653,3.7794,7.5123,3.7794  c0.863,0,1.723-0.1201,2.5555-0.3564l25.9262-7.3646c0.9086-0.2583,1.8477-0.389,2.7903-0.389c2.8824,0,5.6441,1.2264,7.5773,3.3644  l4.4892,4.9668c0.6748,0.7469,0.9922,1.7105,0.893,2.7122C86.8756,54.4251,86.3755,55.3071,85.567,55.9068z"/>
        </symbol>
        <symbol id="estoril-circuit" viewBox="0 0 100 125">
            <path d="M90.4563,20.1814c-2.8988-4.0487-6.2618-4.6532-8.0088-4.6532c-1.4406,0-2.8575,0.3986-3.7906,1.0666l-4.9749,3.5615  c-0.5902,0.4227-1.2849,0.6459-2.0081,0.6459c-1.1144,0-2.1667-0.54-2.8141-1.4445l-1.7293-2.4151  c-2.4525-3.4245-8.8581-3.6911-10.7638-3.6911c-0.6168,0-1.1952,0.0246-1.6731,0.07c-1.5046,0.1439-2.6377,0.9075-3.1077,2.0953  c-0.3941,0.9942-0.2158,2.1303,0.4552,2.8934c0.2404,0.2744,0.5735,0.637,0.9341,1.0198c0.2197,0.235,0.1596,0.4951,0.1242,0.5961  c-0.0355,0.1-0.1527,0.3385-0.47,0.3808l-7.5496,1.0188c-1.5755,0.2123-2.9609,1.179-3.7058,2.585  c-1.341,2.5298-3.7236,7.2934-4.6094,10.7721c-0.5804,2.2751,0.0296,3.6945,0.6434,4.4842  c0.8838,1.1376,2.4091,1.7899,4.1847,1.7899c0.94,0,1.8702-0.1798,2.6919-0.5203c1.8692-0.774,18.4651-7.626,25.4974-9.7981  c2.1835-0.675,4.2182-0.1517,6.0775,1.5529c0.7597,0.6971,1.1006,1.7209,0.9124,2.7392c-0.1902,1.0292-0.8838,1.8731-1.8554,2.2574  L38.2859,51.677c-1.4366,0.5685-2.7136,1.5012-3.692,2.6973c-2.2298,2.7264-7.6137,9.2892-9.4405,11.3441  c-1.6031,1.8027-3.6043,2.9673-5.0981,2.9673c-0.8494,0-1.5204-0.3754-2.0534-1.1474c-1.1361-1.6455,0.2049-3.0949,3.7738-6.2514  c0.8553-0.7567,1.7401-1.5396,2.6417-2.4077c1.9204-1.8485,2.7294-4.2734,2.3402-7.0121c-0.2483-1.7426-1.7056-3.0072-3.4654-3.0072  c-0.8208,0-1.5913,0.2838-2.2298,0.8208L9.7319,59.2134C7.5967,61.0096,6.903,64.042,8.046,66.5876l2.8821,6.4199  c0.4621,1.0307,0.7262,2.1244,0.7843,3.2516c0.1113,2.1116,0.2227,5.0341,0.3045,7.4023c0.0601,1.7307,1.4662,3.0871,3.2004,3.0871  c0.6641,0,1.3046-0.2079,1.8534-0.6011l23.4918-16.8165l0.6006,0.8314l-7.0199,5.0713l-1.8744,1.3542l3.2339-0.2618l0.1917-0.9681  l6.8775-4.9685l-1.1889-1.6458l41.7198-29.865c4.6301-3.3142,7.4777-6.4101,8.7064-9.4646  C93.0635,26.2944,92.6082,23.1881,90.4563,20.1814z M89.937,28.6611c-1.0661,2.6496-3.76,5.5356-8.0088,8.5768L15.8962,84.5068  c-0.6878,0.4917-1.8268,0.1054-1.8633-0.9159c-0.0739-2.1618-0.1872-5.2075-0.3045-7.4378  c-0.0719-1.376-0.3951-2.7121-0.9597-3.9719l-2.8821-6.4204c-0.7755-1.7268-0.3045-3.7847,1.144-5.0035l11.3303-9.5321  c0.27-0.2271,0.5922-0.3473,0.9311-0.3473c0.6395,0,1.3479,0.438,1.4672,1.2735c0.2986,2.0997-0.2867,3.8743-1.7411,5.2745  c-0.871,0.838-1.7401,1.6066-2.5796,2.3495c-3.2723,2.8939-6.3623,5.6277-4.098,8.9089c0.9114,1.3208,2.1963,2.0194,3.7147,2.0194  c2.4811,0,5.039-1.8825,6.6057-3.6442c1.7864-2.0086,6.716-8.0093,9.4956-11.4072c0.7607-0.9306,1.7539-1.6568,2.8722-2.0993  l36.6307-14.4888c1.6219-0.6415,2.7796-2.0495,3.0969-3.7669c0.3153-1.7061-0.2572-3.423-1.5332-4.5931  c-2.3924-2.1933-5.1651-2.8791-8.0364-1.9938c-7.12,2.1993-23.7968,9.0843-25.6748,9.8622  c-0.5705,0.2365-1.2524,0.3665-1.9194,0.3665c-1.1479,0-2.0928-0.368-2.5914-1.01c-0.4907-0.6316-0.5853-1.5558-0.2818-2.7476  c0.8346-3.2752,3.1383-7.8753,4.4379-10.3258c0.4404-0.8326,1.2602-1.4041,2.1924-1.5297l7.5496-1.0188  c0.9686-0.1311,1.7736-0.7838,2.1007-1.7046c0.3281-0.9218,0.1163-1.9382-0.5538-2.653c-0.3419-0.3651-0.6592-0.7089-0.8888-0.9706  c-0.1734-0.1976-0.2118-0.5262-0.0966-0.8188c0.1823-0.4582,0.7006-0.7607,1.4238-0.8296c0.4099-0.0394,0.9361-0.0611,1.4819-0.0611  c3.425,0,7.6196,0.7484,9.1222,2.8476l1.7293,2.4151c1.0257,1.4327,2.6919,2.2879,4.4557,2.2879  c1.1469,0,2.2475-0.3537,3.1826-1.0233l4.9749-3.5615c0.4444-0.3178,1.3962-0.6892,2.6161-0.6892  c1.6603,0,4.1138,0.6607,6.3672,3.8098C90.5647,23.7995,90.9312,26.189,89.937,28.6611z"/>
        </symbol>
        <symbol id="imola-circuit" viewBox="0 0 100 125">
            <path d="M91.1569,11.9795c0.6555-1.1505,0.4884-2.573-0.4154-3.5391c-0.8764-0.9377-2.3607-1.2128-3.5138-0.6495l-17.6164,8.5969  c-0.386,0.1885-0.7974,0.3161-1.2224,0.3794l-8.0169,1.1951c-2.7179,0.4053-4.6972,2.7817-4.6045,5.5275l0.1646,4.8603  c0.0415,1.2331,0.4078,2.4388,1.0598,3.4864l5.2722,8.4794c0.4924,0.7918,0.6074,1.7533,0.3146,2.6384l-0.8719,2.6389  c-0.1251,0.3789-0.5517,0.5963-0.9428,0.4499l-0.1798-0.0674c-0.8111-0.305-1.7169-0.3019-2.5269,0.0081l-22.3151,8.565  l-0.0785-0.1657c-0.2953-0.6201-0.9063-1.0056-1.5948-1.0056c-0.457,0-0.8906,0.1748-1.2204,0.4919l-8.291,7.9672  c-0.7797,0.7493-1.4387,1.611-1.959,2.5608l-8.0422,14.6964c-0.1727,0.3161-0.3921,0.6023-0.652,0.8516L9.421,84.243  c-0.6322,0.6059-0.9782,1.4215-0.9752,2.2969c0.003,0.8744,0.3546,1.6875,0.9909,2.2883c0.8268,0.7812,1.8567,1.7711,2.8086,2.7336  C12.8436,92.1667,13.642,92.5,14.4935,92.5c0.768,0,1.5092-0.2786,2.0872-0.7852l9.8376-8.6243  c1.9691-1.726,4.376-2.8648,6.9606-3.2939c2.4504-0.4068,4.3162-0.7558,5.5462-1.0375c1.3607-0.3116,2.3369-1.5517,2.3217-2.9484  l-0.0096-0.9048l9.5126-1.1587l0.2404,2.0174l8.6631-1.0324l0.8193,0.5988l2.6285-2.0546l-2.3611,0.2814l-8.8424,1.0538  l-0.118-0.9898l6.548-0.7975c0.419-0.0517,0.8344-0.1393,1.2325-0.2609c3.3035-1.0031,14.589-4.7113,21.121-10.332  c0.5522-0.4747,0.8151-1.187,0.7042-1.9038l-0.3166-2.0608c-0.0294-0.1925,0.0365-0.3886,0.1773-0.5243l2.6221-2.5289  c1.5-1.4458,2.3607-3.3891,2.4241-5.4728l0.6191-20.4812c0.0426-1.4048-0.4179-2.7827-1.2959-3.88l-0.7918-0.9894  c-0.2599-0.3247-0.2948-0.7685-0.0892-1.1302L91.1569,11.9795z M83.2038,25.687l0.7918,0.9894  c0.5704,0.7128,0.8693,1.6079,0.842,2.5203l-0.6191,20.4812c-0.0466,1.5385-0.6824,2.9742-1.7903,4.0421l-2.6227,2.5289  c-0.6251,0.6028-0.9195,1.4752-0.7872,2.3334l0.3095,2.0765c-6.3841,5.4935-18.0886,9.2261-20.3713,9.9192  c-0.2852,0.0871-0.5816,0.1494-0.881,0.1864L40.829,72.8653c-0.961,0.1165-1.6784,0.9347-1.6682,1.9028l0.0111,1.0649  c0.0046,0.4281-0.2938,0.8085-0.7097,0.9038c-1.1895,0.272-3.0137,0.613-5.4226,1.0132c-2.9666,0.4919-5.7291,1.7994-7.989,3.7802  l-9.8376,8.6243c-0.419,0.3673-1.1008,0.3445-1.4924-0.0517c-0.9691-0.9798-2.0173-1.9879-2.8587-2.7832  c-0.2189-0.2067-0.3399-0.4863-0.3409-0.7873c-0.001-0.3014,0.118-0.5821,0.3359-0.7913l4.4834-4.2975  c0.4129-0.3956,0.7619-0.8511,1.037-1.3536l8.0417-14.6959c0.419-0.765,0.9494-1.458,1.5765-2.0608l7.9814-7.6699  c0.4306,0.8126,1.4636,1.2098,2.3334,0.8759l22.4894-8.6177c0.3374-0.1292,0.7133-0.1322,1.0557-0.003l0.1798,0.0674  c0.3171,0.119,0.6484,0.1793,0.9843,0.1793c1.2103,0,2.2787-0.7721,2.6581-1.921l0.8718-2.6389  c0.4858-1.4712,0.2953-3.0695-0.5233-4.3851l-5.2722-8.4794c-0.46-0.7391-0.7184-1.5902-0.7477-2.4605l-0.1646-4.8603  c-0.0572-1.6915,1.1621-3.1556,2.8364-3.4048l8.0169-1.1951c0.6353-0.0952,1.2498-0.2857,1.8263-0.5669l17.6164-8.5969  c0.3602-0.1768,0.8156-0.0912,1.0877,0.2011c0.2802,0.2989,0.3318,0.7391,0.1287,1.0953l-6.4226,11.2809  C82.3026,23.3384,82.4094,24.694,83.2038,25.687z"/>
        </symbol>
        <symbol id="monaco-circuit" viewBox="0 0 100 125">
            <path d="M92.1667,17.4843c-0.3526-0.5589-0.9321-0.9215-1.5904-0.9952c-2.8077-0.3139-4.1972-0.4431-5.1957-0.477  c-1.0608,0-1.9359,0.8641-1.9507,1.9268c-0.0287,2.0503,0.067,3.5866,0.6278,4.423c0.2158,0.3211,0.3029,0.7742,0.212,1.1019  c-0.0584,0.2115-0.1866,0.3574-0.4038,0.4598c-0.1804,0.0852-0.345,0.1282-0.4895,0.1282c-0.5311,0-0.7354-0.7101-0.7981-1.0148  c-0.1474-0.7139,0.0268-1.2569,0.2105-1.8321c0.1297-0.4043,0.2636-0.823,0.2608-1.2751c-0.0033-0.5651-0.0555-3.023-0.0876-4.478  c-0.0244-1.1139-0.8445-2.0326-1.9503-2.1838c-0.5847-0.0794-1.1794,0.0756-1.6445,0.4201l-14.215,10.4881  c-1.366,1.0081-1.7818,2.89-0.9665,4.3776c2.8321,5.1642,0.7306,8.0034-1.6986,10.0996c-0.7842,0.677-1.9967,1.0201-3.6034,1.0201  c-1.8737,0-3.935-0.4612-5.4402-0.7981c-0.6263-0.1402-1.1699-0.2608-1.5914-0.3292c-0.3411-0.055-0.7072-0.0828-1.0871-0.0828  c-1.933,0-4.0254,0.7187-5.5536,1.2435c-0.3048,0.1043-0.589,0.2024-0.8474,0.2856c-0.1182,0.0383-0.3493,0.0837-0.7804,0.0837  c-1.3608,0-3.5527-0.4579-5.4871-0.8613c-1.112-0.2321-2.1627-0.4512-3.0646-0.5924c-1.5756-0.2455-2.8632-0.2545-4.1082-0.2632  c-1.2278-0.0091-2.3881-0.0172-3.8197-0.2407c-2.3043-0.3593-6.4211-1.068-8.0843-1.356c-0.6158-0.1086-1.2096,0.1144-1.6077,0.5632  c-0.3316,0.3737-0.488,0.8732-0.4282,1.3708l0.1014,0.8426c0.033,0.2761-0.0421,0.5526-0.2105,0.779  c-1.2919,1.7313-5.1426,7.3507-7.0626,14.9008l-1.0898-0.3305l2.4406-8.0487l0.6517-2.1491l-2.3448,2.1049l0.4215,0.8608  L7.5,55.5422l2.0806,0.6309c-0.2295,1.0108-0.4283,2.0485-0.5745,3.1187c-1.3187,9.6484,0.4345,18.582,1.0034,21.0901  c0.0703,0.311,0.0837,0.633,0.0397,0.9565l-0.2029,1.4857c-0.2182,1.5976,0.9038,3.0756,2.5019,3.2938l4.457,0.6091  c0.1249,0.0172,0.2498,0.0254,0.3742,0.0254c0.9426,0,1.8101-0.4732,2.3211-1.2656l0.2469-0.3828  c0.7144-1.1101,0.3971-2.601-0.7072-3.3244c-0.8014-0.5254-1.9105-1.3268-2.6421-2.1603  c-1.4325-1.6345-2.2192-5.0886-2.3383-10.2666c-0.0033-0.1593,0.0761-0.2651,0.1239-0.3139  c0.0469-0.0483,0.1478-0.1287,0.3402-0.1287c0.0024,0,0.0048,0,0.0072,0.0005l0.8139,0.0785l0.178,0.0081  c0.9282,0,1.7196-0.6943,1.8407-1.6144l1.0249-7.7642c0.0919-0.6967-0.0536-1.4139-0.4101-2.0187l-1.1675-1.9809  c-0.2359-0.4005-0.301-0.8675-0.1833-1.3144c0.5024-1.9024,1.5029-5.4503,2.5589-7.8336c0.9182-2.0704,2.5144-3.3048,3.3852-3.8565  c0.2995-0.1909,0.6737-0.2684,1.0426-0.2273l26.7074,3.2034c0.5177,0.0617,1.022,0.2459,1.4579,0.533l2.0814,1.3694  c0.845,0.5555,2.0766,0.2263,2.5359-0.6713l0.4569-0.8957c0.0684-0.1344,0.2124-0.2062,0.4129-0.2139  c1.1297,0.1622,2.8574,0.3785,4.6704,0.4895c0.3636,0.0225,0.7412,0.0335,1.1287,0.0335c3.1278,0,6.4465-0.7182,8.6608-1.8737  c2.7345-1.4268,9.3479-8.1058,14.7427-14.8887c3.6938-4.645,5.2886-8.3422,5.9106-10.1331  C92.5959,18.7178,92.5179,18.0413,92.1667,17.4843z M90.5284,18.6972c-0.5809,1.6727-2.0799,5.1383-5.5929,9.5556  c-5.6134,7.0575-11.9441,13.2384-14.1154,14.3709c-1.9517,1.0191-4.923,1.6517-7.7541,1.6517c-0.3464,0-0.6833-0.0096-1.0086-0.0297  c-1.7479-0.1072-3.4182-0.3167-4.5125-0.4732c-1.0144-0.1455-1.9809,0.3699-2.4364,1.2627l-0.3565,0.6981l-1.8948-1.2469  c-0.6885-0.4526-1.4847-0.744-2.3024-0.8416l-26.7074-3.2034c-0.822-0.1005-1.6464,0.0866-2.3259,0.5182  c-1.0569,0.6703-2.9991,2.1747-4.1264,4.7173c-1.1115,2.5077-2.145,6.1685-2.6622,8.1278c-0.2526,0.9569-0.1139,1.955,0.3895,2.8096  l1.1675,1.9809c0.1354,0.2297,0.1909,0.5024,0.156,0.7675l-1.012,7.6661l-0.7148-0.0694c-0.7349-0.0689-1.4297,0.1904-1.9373,0.7096  c-0.4541,0.4651-0.6962,1.079-0.6809,1.7287c0.1311,5.7302,1.055,9.4963,2.8235,11.514c0.877,0.9995,2.1383,1.9153,3.0421,2.5072  c0.2072,0.1359,0.267,0.4158,0.1335,0.6235l-0.2464,0.3823c-0.1689,0.2612-0.4756,0.4024-0.7833,0.3608l-4.457-0.6091  c-0.5268-0.0723-0.8971-0.5598-0.8254-1.0871l0.2029-1.4857c0.0761-0.5574,0.0526-1.1144-0.0703-1.655  c-0.5502-2.4268-2.2464-11.0695-0.9727-20.3916c1.2445-9.1077,6.0532-16.1308,7.4977-18.0667  c0.4708-0.6311,0.6785-1.4067,0.5852-2.1847l-0.0675-0.5636c1.812,0.3134,5.6398,0.9708,7.8384,1.3139  c1.5756,0.2455,2.8632,0.2545,4.1082,0.2632c1.2278,0.0091,2.3881,0.0172,3.8197,0.2407c0.8531,0.1325,1.8799,0.3469,2.967,0.5737  c2.8862,0.6034,5.8575,1.1809,7.2694,0.7244c0.2689-0.0866,0.5651-0.1885,0.8823-0.2976c1.3971-0.4799,3.311-1.1369,4.9168-1.1369  c0.2756,0,0.5364,0.0191,0.7742,0.0579c0.3914,0.0632,0.8957,0.1766,1.4761,0.3067c1.5947,0.3569,3.7785,0.8455,5.8685,0.8455  c2.0905,0,3.7335-0.5034,4.8838-1.4962c2.6244-2.2646,5.7005-6.0268,2.1369-12.5255c-0.3459-0.6311-0.1689-1.4302,0.4115-1.8584  l14.2159-10.4891c0.0502-0.0373,0.1182-0.0531,0.2144-0.0545c0.1455,0.0201,0.2536,0.1397,0.2565,0.2852  c0.0316,1.4445,0.0837,3.8852,0.0871,4.4465c0.001,0.1407-0.0847,0.4077-0.1675,0.6665c-0.2172,0.6785-0.5144,1.6077-0.2636,2.8249  c0.3287,1.5909,1.3699,2.579,2.7177,2.579c0.4354,0,0.8809-0.1057,1.3249-0.3153c0.7301-0.344,1.2479-0.9517,1.4574-1.7105  c0.2431-0.8785,0.0612-1.9192-0.4732-2.7158c-0.1531-0.2278-0.3282-0.9861-0.3043-3.2981c0.8632,0.0306,2.2589,0.1608,4.9776,0.4646  c0.0813,0.0091,0.1268,0.056,0.1507,0.0938C90.5317,18.5661,90.5537,18.6245,90.5284,18.6972z"/>
        </symbol>
        <symbol id="mosport-circuit" viewBox="0 0 100 125">
            <path d="M91.033,84.2911l-5.5022-7.6481c-1.1567-1.6075-1.5949-3.64-1.2025-5.5762c1.2911-6.3707,3.6318-17.8575,4.7972-23.216  c0.74-3.4054-0.2337-5.5207-1.1801-6.6959c-1.3281-1.6474-3.5159-2.5924-6.0036-2.5924c-1.4186,0-2.8304,0.3077-4.1303,0.9123  l-12.0335,6.3648c-1.2005,0.6348-2.55,0.9707-3.9015,0.9707c-2.8392,0-5.4593-1.4191-7.0084-3.7963l-1.2852-1.9736  c-0.5657-0.867-0.8909-1.8724-0.9406-2.9074l-0.926-19.1622c-0.259-5.3663-4.6638-9.5701-10.0287-9.5701  c-1.2258,0-2.4371,0.2264-3.6016,0.6728L30.61,12.9383l-0.378-0.985l7.9896-3.0656l2.1334-0.8185L37.1999,7.5l-0.4284,0.8761  l-7.8275,3.0034l0.7349,1.9155L18.3423,17.639c-1.1032,0.4221-1.958,1.2565-2.4079,2.3485  c-0.4498,1.0924-0.4304,2.2871,0.0555,3.3655l0.1178,0.2609c1.1976,2.6557,0.8305,5.7329-0.9571,8.0317l-4.9881,6.413  c-3.3212,4.269-2.7087,10.3744,1.3953,13.8995l14.3158,12.2974c2.9736,2.5539,6.3639,4.4866,10.0755,5.7456l38.226,12.958  c2.5374,0.8602,4.8605,2.3334,6.7192,4.2612l4.1293,4.2827c0.6202,0.6431,1.4537,0.997,2.3475,0.997  c0.8705,0,1.6893-0.3393,2.3056-0.9557l0.8364-0.8364C92.2452,88.9773,92.4633,86.2783,91.033,84.2911z M89.1022,89.2981  l-0.8354,0.8364c-0.4859,0.4859-1.3339,0.4766-1.8081-0.0161l-4.1293-4.2827c-2.0778-2.1557-4.6765-3.8036-7.5137-4.7656  l-38.226-12.958c-3.4701-1.1762-6.6384-2.9828-9.4173-5.3697L12.8566,50.4451c-3.2949-2.8304-3.7875-7.7333-1.1207-11.1621  l4.9881-6.4135c2.2433-2.883,2.7039-6.7441,1.2015-10.0769l-0.1178-0.2609c-0.258-0.5711-0.2687-1.2049-0.0302-1.7847  c0.2395-0.5793,0.6932-1.0219,1.2774-1.2463l19.7439-7.5654c0.9367-0.3583,1.9084-0.5404,2.8889-0.5404  c4.2987,0,7.8292,3.3703,8.0366,7.6725l0.926,19.1622c0.0672,1.388,0.5034,2.7365,1.2619,3.9l1.2852,1.9731  c1.9181,2.9444,5.1633,4.7018,8.6792,4.7018c1.6757,0,3.3465-0.4158,4.8342-1.2025l11.9868-6.3415  c0.9922-0.4605,2.1138-0.704,3.2442-0.704c1.8811,0,3.5032,0.6743,4.4506,1.85c0.9669,1.1986,1.2375,2.9351,0.7838,5.0207  c-1.1674,5.3702-3.5101,16.8677-4.8031,23.2433c-0.5024,2.4789,0.0584,5.0806,1.5394,7.1369l5.5022,7.6481  C90.2706,86.6459,90.1401,88.2612,89.1022,89.2981z"/>
        </symbol>
        <symbol id="catalunya-circuit" viewBox="0 0 100 125">
            <path d="M89.7742,16.9109l-3.6139-3.0722c-0.7952-0.6764-1.9979-0.7977-2.9165-0.2924l-1.4414,0.7967  c-0.3374,0.1869-0.7808,0.0993-1.0235-0.1992l-3.6953-4.555c-0.7696-0.9488-1.9119-1.4931-3.1346-1.4931  c-0.7071,0-1.4055,0.1879-2.0189,0.5428l-8.1986,4.745c-2.1562,1.2478-3.2719,3.7271-2.7762,6.1694l0.1905,0.9396  c0.4762,2.3451,2.6129,4.0194,5.046,3.8633c0.9165-0.0589,1.8146-0.3436,2.596-0.8223l1.6656-1.02  c0.5346-0.3272,1.2104-0.3907,1.7972-0.1664c1.6139,0.6149,4.6502,1.7926,6.8596,2.766c0.107,0.0471,0.1592,0.1306,0.1541,0.2483  c-0.0051,0.1203-0.065,0.2007-0.1787,0.2396L41.7618,38.4059c-3.1556,1.0829-4.939,4.3435-4.1479,7.5847l3.6088,14.7838  c0.2729,1.1178,0.8694,2.1157,1.725,2.8853l1.9385,1.745c0.5008,0.4506,0.7957,1.0696,0.831,1.7424  c0.0353,0.6728-0.1935,1.319-0.6446,1.8192l-3.6385,4.0389c-3.2606,3.618-7.6384,6.1403-12.3286,7.1018  c-2.2514,0.4624-4.3215,0.6513-6.3056,0.5443c-0.4859-0.0261-0.892-0.3113-1.0865-0.7634  c-0.1992-0.4629-0.1244-0.9672,0.1997-1.3492l9.6149-11.3102c3.0839-3.6277,1.662-8.8243-0.6718-10.8084  c-0.9283-0.7895-2.1285-1.2063-3.4716-1.2063c-1.8259,0-3.6641,0.7742-4.682,1.9718L11.4021,70.4794  c-4.4162,5.1945-5.6835,14.9256-0.6339,19.218c1.7225,1.4644,3.7056,2.2068,5.894,2.2068c2.6062,0,5.5504-1.0261,9.2657-3.2304  c1.2806-0.7604,2.959-0.6667,4.1346,0.2309l2.1679,1.6554c0.7215,0.5504,1.5822,0.8418,2.4885,0.8418  c1.2069,0,2.3466-0.5269,3.1275-1.446l34.0222-40.0229l0.8406,0.6944l-5.7326,6.9387l-1.5306,1.8528l3.1839-1.1101l-0.0607-1.0239  l5.6163-6.798l-1.6376-1.3529L90.659,27.8284C93.4255,24.5744,93.0287,19.6769,89.7742,16.9109z M89.0615,26.4705L36.2483,88.598  c-0.6667,0.7865-1.9206,0.9247-2.745,0.2949l-2.1679-1.6554c-1.8279-1.3958-4.4895-1.5468-6.4777-0.3671  c-3.3779,2.0036-5.982,2.9365-8.1955,2.9365c-1.7004,0-3.1838-0.5581-4.5356-1.7071c-4.361-3.7076-2.5059-12.2872,0.873-16.2626  L24.3001,58.544c0.6175-0.7261,1.8858-1.233,3.0845-1.233c0.5847,0,1.426,0.1224,2.1131,0.7066  c1.6426,1.3968,2.6528,5.2406,0.4327,7.8525l-9.6149,11.3102c-0.8397,0.9882-1.0425,2.343-0.5284,3.5371  c0.509,1.1828,1.6206,1.9595,2.9012,2.0281c2.1572,0.1162,4.4111-0.0865,6.8387-0.5842c5.1254-1.0507,9.9072-3.8039,13.4653-7.7521  l3.639-4.0389c0.8259-0.917,1.2453-2.1009,1.1807-3.3333c-0.065-1.2319-0.6057-2.3656-1.5228-3.191l-1.9385-1.745  c-0.5407-0.4869-0.9181-1.1178-1.0901-1.8244l-3.6088-14.7838c-0.5325-2.1802,0.6677-4.3743,2.7911-5.1034l37.3238-12.8048  c0.9263-0.318,1.5514-1.1556,1.5929-2.1346c0.0415-0.9764-0.5095-1.8622-1.4035-2.256c-2.1393-0.9426-4.9646-2.0466-6.9585-2.8069  c-1.1869-0.4521-2.5576-0.3251-3.6395,0.3379l-1.6656,1.02c-0.4926,0.3016-1.0579,0.4808-1.6344,0.5177  c-1.3748,0.1045-2.5873-0.8592-2.8571-2.1869l-0.1905-0.9396c-0.3164-1.5591,0.3958-3.1413,1.7716-3.937l8.1986-4.745  c0.8039-0.4675,1.8919-0.2622,2.4746,0.4557l3.6953,4.555c0.8633,1.0645,2.4629,1.3784,3.6651,0.7143l1.4414-0.7967  c0.1715-0.0947,0.3973-0.0707,0.5458,0.0543l3.6134,3.0717C90.7891,20.5258,91.0784,24.0972,89.0615,26.4705z"/>
        </symbol>
        <symbol id="donington-park-circuit" viewBox="0 0 100 125">
            <path d="M90.7556,61.816c-1.3728-1.7017-3.3282-2.7333-5.5082-2.9044l-4.8633-0.3818c-1.1938-0.0935-2.3144-0.5361-3.2402-1.2799  c-3.1789-2.5523-7.0026-6.2074-9.6504-8.8245c-2.1186-2.0934-3.5261-4.8712-3.9632-7.8221  c-0.4391-2.9598-1.0435-7.1258-1.4312-10.1662c-0.3808-2.9915-2.6151-5.4429-5.5586-6.1006l-8.9116-1.99  c-3.168-0.7072-6.0403-2.5454-8.0877-5.1758C34.9025,11.211,28.7277,8.1893,21.188,8.1893c-3.0859,0-6.34,0.5158-9.6741,1.5326  c-1.8783,0.5732-3.3055,2.0504-3.8159,3.9523c-0.5133,1.9124-0.0148,3.9182,1.3343,5.3652l26.982,28.9448  c0.8051,0.8645,0.9495,2.132,0.358,3.1552l-0.1592,0.2764c-0.1325,0.2285-0.3699,0.365-0.636,0.365  c-0.1157,0-0.2878-0.0272-0.456-0.1578c-6.4488-5.0166-17.1515-11.1395-21.453-13.5389c-0.4757-0.2651-1.0128-0.4055-1.5519-0.4055  c-1.4351,0-2.7022,0.9663-3.082,2.3491c-0.4035,1.4678,0.2898,3.0251,1.6498,3.7026c10.682,5.3217,22.7932,14.5824,26.251,17.295  c0.723,0.5662,1.7764,0.6592,2.5854,0.2314l0.4876-0.2577c1.1177-0.589,2.5558-0.4139,3.4954,0.4209l32.0579,28.4512  c0.9624,0.8536,2.1483,1.4159,3.4281,1.6255c1.1691,0.1914,2.3896,0.2967,3.6299,0.3135l0.0969,0.0005  c3.6754,0,6.8216-2.7566,7.3192-6.4122l2.3906-17.5848C92.7209,65.6477,92.1274,63.5177,90.7556,61.816z M90.4183,67.5407  l-2.3906,17.5848c-0.361,2.6567-2.6448,4.6595-5.3113,4.6595v1.0128l-0.0702-1.0133c-1.1394-0.0148-2.259-0.1118-3.3282-0.2868  c-0.903-0.1479-1.7368-0.5425-2.4114-1.1419L44.8487,59.9046c-0.9376-0.8313-2.1433-1.2893-3.3975-1.2893  c-0.8288,0-1.6557,0.2047-2.3886,0.5925l-0.4886,0.2581c-0.1009,0.0529-0.2235,0.093-0.3897-0.0351  c-3.4954-2.7417-15.7431-12.1068-26.5962-17.5135c-0.4955-0.2468-0.7487-0.816-0.6014-1.3526  c0.1929-0.6968,1.0474-1.0722,1.6943-0.7111c4.2619,2.3767,14.8579,8.4373,21.1959,13.3683  c0.4926,0.3823,1.0801,0.5845,1.7002,0.5845c0.9822,0,1.898-0.5272,2.3896-1.3768l0.1602-0.2769  c1.0395-1.7991,0.7863-4.029-0.631-5.5492l-9.396-10.0795l1.4986-1.4042l-5.8233-6.2147l-0.0032-0.9906l-3.136-0.8784l1.5871,1.6938  l5.9439,6.3434l-0.7576,0.7099L10.5139,17.6587c-0.8694-0.9327-1.1908-2.2259-0.8595-3.4593  c0.3284-1.2225,1.2443-2.172,2.4509-2.5399c3.1413-0.9584,6.1975-1.4445,9.0827-1.4445c6.882,0,12.5197,2.759,16.7549,8.1999  c2.3352,3.0004,5.6189,5.0987,9.2449,5.9087l8.9116,1.99c2.1127,0.4718,3.7169,2.2318,3.9899,4.3796  c0.3907,3.0577,0.997,7.238,1.4371,10.2068c0.5015,3.3821,2.1146,6.5665,4.5428,8.9665c2.6814,2.6502,6.5595,6.3568,9.8067,8.963  c1.2443,0.9995,2.7486,1.5944,4.35,1.72l4.8633,0.3818c1.6181,0.1271,3.0701,0.8926,4.0888,2.1562  C90.1968,64.351,90.6379,65.9325,90.4183,67.5407z"/>
        </symbol>
        <symbol id="long-beach-circuit" viewBox="0 0 100 125">
            <path d="M91.3169,24.7441L87.1806,9.6495c-0.4122-1.5045-2.0279-2.4518-3.5522-2.0615c-0.7872,0.2025-1.4606,0.7285-1.8468,1.4427  c-0.3862,0.7142-0.4581,1.5641-0.1969,2.3335c1.1586,3.4084,3.8899,11.6428,4.2251,14.4839  c0.3413,2.8936-0.1428,4.7822-1.2948,5.0516c-0.7739,0.1806-2.7564,0.5122-5.5821,0.9331c-0.6811,0.102-1.3636-0.1877-1.7667-0.7331  l-4.8521-6.553c-1.0218-1.381-3.0711-1.8111-4.5593-0.9494C55.9646,30.44,40.3151,44.0856,34.1335,49.6351  c-0.6515,0.5857-0.8872,1.4983-0.601,2.3263c0.2862,0.828,1.0366,1.4004,1.9116,1.4585l1.2341,0.0811  c0.178,0.0112,0.3183,0.1612,0.3183,0.3398l0.0066,7.4661c0,0.1632-0.0704,0.3188-0.1928,0.4265l-8.0227,7.0325  c-0.1189,0.1041-0.228,0.1311-0.3632-0.024l-5.376-6.1331c-0.8678-0.9887-2.5595-1.0229-3.4696-0.0684  c-2.561,2.686-2.836,5.0174-3.1273,7.4855c-0.077,0.6545-0.1571,1.3356-0.2857,2.0595c-0.2913,1.6325-2.4549,3.9466-5.9372,6.3489  c-1.3606,0.9382-2.0677,2.5436-1.8442,4.1894l0.8045,5.9449c0.2112,1.5636,1.6631,2.763,3.2517,2.6278  c3.1359-0.2801,5.8148-1.6248,7.5095-2.7043c0.1867-0.1189,0.3903-0.1791,0.6045-0.1791c0.4413,0,0.98,0.2796,1.1198,0.8943  l0.352,1.5453c0.2337,1.029,1.1331,1.7473,2.1876,1.7473c0.1796,0,0.3597-0.0219,0.5362-0.0648l35.3136-8.6773  c1.007-0.2479,1.8973-0.5285,2.7222-0.8586c4.4674-1.7871,8.361-4.5169,10.8408-6.4917c2.4707-1.9682,4.5118-4.4761,5.9025-7.2534  c0.0163-0.0327,0.0319-0.0679,0.0482-0.1007l1.0215,0.4875l-3.8623,8.0931l-1.0313,2.161l2.8089-1.8431l-0.3064-0.975l3.784-7.929  l-1.9635-0.937c3.1572-6.7714,5.4449-16.1224,6.5553-21.2543c0.6066-2.8069-0.7714-5.652-3.3512-6.9182l-0.9178-0.451  c-0.3816-0.1872-0.6627-0.5137-0.7902-0.9198c-0.1275-0.4056-0.0847-0.8336,0.1204-1.205l0.0898-0.1622  c0.1097-0.1985,0.3086-0.3331,0.5346-0.3602l1.0336-0.1265c2.7462-0.3403,5.2036-1.8544,6.7432-4.1542  C91.5853,30.2604,92.0485,27.4117,91.3169,24.7441z M88.3096,31.3975c-1.2019,1.7947-3.1201,2.9768-5.2633,3.2426l-1.0264,0.1255  c-0.8902,0.1066-1.6805,0.6392-2.1141,1.4238l-0.0898,0.1622c-0.4846,0.8775-0.5857,1.8876-0.2847,2.8436  c0.301,0.9565,0.9627,1.7269,1.8626,2.1682l0.9178,0.4505c1.7162,0.8428,2.6329,2.7344,2.2294,4.6011  c-1.1473,5.3031-3.5665,15.1874-6.88,21.8036c-1.256,2.5079-3.1012,4.7746-5.3362,6.5545  c-2.3702,1.8876-6.0836,4.4935-10.3154,6.1862c-0.7331,0.2938-1.533,0.5454-2.4447,0.7693l-35.313,8.6773  c-0.074,0.0189-0.1658-0.0199-0.1877-0.1163l-0.352-1.5458c-0.3372-1.4835-1.6356-2.5202-3.1574-2.5202  c-0.6101,0-1.207,0.175-1.7269,0.5061c-1.4988,0.9545-3.8563,2.1432-6.6417,2.3886c-0.4413,0-0.8657-0.3801-0.927-0.83  l-0.8045-5.9449c-0.1163-0.8611,0.2515-1.6998,0.9606-2.1886c2.8268-1.9503,6.303-4.87,6.8075-7.7029  c0.1367-0.7663,0.2224-1.4876,0.3041-2.1809c0.2811-2.3845,0.4846-4.1073,2.564-6.2882c0.1326-0.1408,0.2627-0.1372,0.3862,0.0036  l5.376,6.1331c0.8203,0.9361,2.3758,1.0387,3.3119,0.2178l8.0232-7.033c0.5755-0.5051,0.9055-1.2336,0.9045-1.9993l-0.0066-7.4667  c-0.0015-1.2754-0.9999-2.3396-2.2717-2.4227l-1.2336-0.0811l-0.0684,1.0428l0.0173-1.1871  c6.1331-5.5061,21.6521-19.0406,33.2739-25.7859c0.5974-0.3464,1.4187-0.1704,1.8309,0.3857l4.8521,6.553  c0.8555,1.157,2.3008,1.7702,3.7542,1.557c2.0376-0.3035,4.6889-0.7178,5.7495-0.9657c1.3662-0.3194,3.5594-1.6968,2.8946-7.3309  c-0.3459-2.9293-2.8564-10.6-4.3221-14.9109c-0.0755-0.2234-0.0556-0.4602,0.0561-0.6673c0.1122-0.2071,0.3005-0.354,0.529-0.4127  c0.4423-0.1148,0.8989,0.1597,1.0173,0.5897l4.1364,15.094C89.8727,27.379,89.511,29.6023,88.3096,31.3975z"/>
        </symbol>
        <symbol id="paul-ricard-circuit" viewBox="0 0 100 125">
            <path d="M86.4447,68.6491l-17.861-13.5589c-1.0351-0.7856-1.926-1.7333-2.6474-2.8163l-2.304-3.4626  c-0.2836-0.4259-0.4892-0.8943-0.6107-1.3943c-0.247-1.0168-1.1512-1.7264-2.1987-1.7264c-0.4007,0-0.7965,0.1077-1.1443,0.3123  l-0.875,0.5158c-0.3231,0.1878-0.7466,0.164-1.0425-0.0613L21.5766,18.9877c-1.8484-1.4032-2.3435-3.595-2.8218-5.7157  c-0.4432-1.9635-0.8622-3.8184-2.3311-4.934C15.6909,7.7826,14.9285,7.5,14.1577,7.5c-2.2259,0-3.7778,2.3133-4.7522,4.0545  c-0.253,0.4526-0.2668,1.001-0.0366,1.4665c0.2307,0.4664,0.6759,0.7886,1.1918,0.8627l2.1113,0.3004  c0.5074,0.0721,0.9511,0.3646,1.2179,0.8024c0.2668,0.4388,0.3231,0.9674,0.1542,1.4516l-0.2718,0.7757  c-0.3839,1.1008-0.1166,2.3015,0.6972,3.1345c1.673,1.7145,5.2819,5.4084,6.8422,6.9816c0.4556,0.4595,0.8711,0.9645,1.2342,1.5001  l5.477,8.0844c0.8276,1.2224,2.2037,1.9517,3.68,1.9517c0.8059,0,1.5979-0.2214,2.2901-0.6384  c0.9808-0.5919,2.344-0.2984,2.9992,0.6315L52.0838,60.287l-0.8133,0.5748l-5.0128-7.0925l-1.3385-1.8938l0.229,3.2458  l0.9689,0.2023l4.9112,6.9487l1.6382-1.1579l7.742,10.9925c0.3958,0.5613,1.0149,0.8834,1.6987,0.8834  c0.9235,0,1.7264-0.5909,1.9986-1.4724c0.123-0.3982,0.2327-0.8429,0.3607-1.3637c0.0776-0.3162,0.1626-0.6631,0.2629-1.0455  c0.2199-0.839,0.8444-1.34,1.671-1.34c0.5554,0,1.1507,0.2302,1.7234,0.665c0.7886,0.5988,1.091,1.2837,1.4739,2.1503  c0.4882,1.1068,1.0964,2.4843,2.8707,3.8312c1.928,1.4635,4.1005,2.1454,6.8378,2.1454c0.9852,0,1.9102-0.087,2.7264-0.163  c0.632-0.0593,1.2283-0.1146,1.713-0.1146c0.6344,0,0.8958,0.0968,1.003,0.1789c0.7199,0.5465,0.3829,1.7491-1.002,3.5743  c-0.3953,0.5198-1.8583,1.5851-3.1489,2.5248c-0.9753,0.7095-1.9838,1.4437-2.7818,2.1088c-0.8983,0.749-1.3434,1.586-1.3227,2.4902  c0.0371,1.6275,1.6236,3.0515,3.3322,4.348C80.692,92.166,81.6283,92.5,82.6095,92.5c2.2684-0.001,4.2902-1.8825,4.7557-3.6405  c0.165-0.6235,0.5731-2.0199,1.0514-3.6573c0.8187-2.8015,1.8375-6.2888,2.2229-7.8996  C91.3224,74.4488,89.7156,71.1324,86.4447,68.6491z M88.6711,76.8323c-0.3735,1.5613-1.3845,5.022-2.1972,7.8027  c-0.4847,1.6592-0.8983,3.0752-1.0653,3.7067c-0.2302,0.8696-1.4353,2.1345-2.799,2.1345c-0.5292,0-1.0539-0.1947-1.5603-0.5801  c-1.6676-1.2649-2.5194-2.2017-2.5327-2.7827c-0.0059-0.2559,0.1942-0.5544,0.5949-0.8884c0.7471-0.6226,1.7283-1.337,2.6775-2.0278  c1.6068-1.17,2.9942-2.1799,3.5693-2.9379c2.7363-3.6059,1.844-5.4756,0.6137-6.4104c-0.6972-0.5287-1.6048-0.59-2.2264-0.59  c-0.5786,0-1.2209,0.0603-1.9008,0.1235c-0.7723,0.0721-1.6478,0.1542-2.5387,0.1542c-2.2723,0-4.0565-0.5514-5.6144-1.7343  c-1.3573-1.0307-1.7876-2.004-2.2427-3.0357c-0.4407-0.9981-0.8963-2.0307-2.1019-2.9458  c-0.9269-0.7036-1.9462-1.0761-2.9468-1.0761c-1.7506,0-3.175,1.1196-3.6286,2.8509c-0.1033,0.3943-0.1907,0.75-0.2708,1.0751  c-0.0805,0.3282-0.1535,0.6146-0.2273,0.8857c-0.0758,0.2439-0.2291,0.3583-0.4137,0.0962l-0.0001-0.0001L38.6465,37.6931  c-0.799-1.1344-2.1058-1.8123-3.4952-1.8123c-0.7752,0-1.5366,0.2125-2.2032,0.6137c-1.0702,0.6453-2.5535,0.3123-3.2497-0.7145  l-5.4775-8.0854c-0.4328-0.6384-0.9279-1.2402-1.4719-1.7896c-1.5589-1.5712-5.1608-5.2591-6.8318-6.9707  c-0.2732-0.2797-0.3632-0.6828-0.2342-1.0524l0.2718-0.7757c0.3691-1.0583,0.2466-2.2145-0.336-3.1721  c-0.5825-0.9566-1.5529-1.5959-2.6617-1.754l-1.4541-0.2065c0.9882-1.6266,1.88-2.4497,2.6548-2.4497  c0.3192,0,0.6695,0.1433,1.0425,0.4269c0.881,0.668,1.2051,2.1048,1.5801,3.767c0.506,2.2422,1.1359,5.0328,3.5728,6.8827  l36.185,27.4697c0.9324,0.7075,2.2832,0.7846,3.2921,0.1927l0.875-0.5158c0.125-0.0692,0.3068-0.0316,0.3498,0.1482  c0.1774,0.7293,0.4778,1.4151,0.8923,2.0376l2.304,3.4626c0.8469,1.2718,1.8929,2.3845,3.1088,3.3075l17.861,13.5589  C87.843,72.252,89.1647,74.7699,88.6711,76.8323z"/>
        </symbol>
        <symbol id="ceasers-palace-circuit" viewBox="0 0 100 125">
            <path d="M27.8472,70.9003l24.039-17.5458c2.1892-1.597,5.2581-1.7459,7.5893-0.3659l21.8409,12.9184  c1.0266,0.607,2.1951,0.9279,3.3814,0.9279c2.6428,0,5.0224-1.5546,6.0628-3.9593c0.7435-1.7174,1.2879-3.5047,1.6173-5.3113  c0.6775-3.6965-1.5216-7.3349-5.1151-8.4635l-31.6243-9.9353c-1.3293-0.4176-2.7089-0.6292-4.1013-0.6292  c-2.7622,0-5.4277,0.8224-7.7106,2.3786l-14.2841,9.7415c-0.7238,0.4936-1.5689,0.7544-2.4427,0.7544  c-1.278,0-2.4851-0.5577-3.3114-1.5295c-1.5127-1.78-1.353-4.4159,0.3619-6.0006l21.2423-19.6265  c1.9999-1.8475,4.6013-2.8652,7.325-2.8652c2.3292,0,4.55,0.7337,6.4227,2.1212l22.2551,16.4916  c0.7899,0.5848,1.7238,0.8939,2.701,0.8939c1.635,0,3.1497-0.8826,3.9534-2.3041c0.4388-0.7786,0.8185-1.5724,1.1272-2.3593  c1.1212-2.8642,0.7455-6.1037-1.0068-8.6661l-5.4671-7.999c-2.0048-2.9318-5.0273-4.9248-8.5113-5.6111L49.0205,8.9983  c-4.8952-0.9654-10.1128,0.3471-13.9666,3.5077L19.7254,25.0698c-1.4753,1.2085-2.4693,2.9086-2.7996,4.7872l-9.314,52.8829  c-0.3757,2.1315,0.2061,4.304,1.5966,5.9607c1.3934,1.6602,3.4288,2.6123,5.5845,2.6123c0.2041,0,0.4102-0.0084,0.6183-0.0256  l26.2533-2.1794l0.1799,2.0955l8.4602-0.7263l0.7778,0.6088l2.6228-1.9143l-2.3058,0.198l-8.6354,0.7414l-0.0933-1.0867  l11.8347-0.9824c1.9151-0.1593,3.8647-0.1528,5.7738,0.0168l19.9485,1.7731c2.2987,0.2086,4.6141-0.2791,6.6258-1.3712  c0.4092-0.2224,0.8323-0.4684,1.2563-0.7396c1.5965-1.0197,2.6774-2.6867,2.9653-4.5737c0.2949-1.9279-0.2564-3.8903-1.5127-5.3838  c-1.5995-1.9018-3.3203-3.4253-5.1121-4.5283l-0.139-0.0853l-18.4082-4.3636c-4.9119-1.1641-10.2331-0.5606-14.7585,1.6735  l-18.1419,8.9546c-0.6942,0.3427-1.4378,0.5167-2.208,0.5167c-1.6468,0-3.1872-0.8096-4.1191-2.166  C25.1324,75.5204,25.6471,72.5053,27.8472,70.9003z M25.0111,78.9087c1.3086,1.9047,3.4712,3.0417,5.7837,3.0417  c1.0828,0,2.1261-0.2441,3.1014-0.7253l18.1419-8.9546c4.1092-2.029,8.9432-2.5763,13.3996-1.5191l18.0896,4.2882  c1.5601,0.9832,3.0698,2.3362,4.4889,4.0234c0.8826,1.0488,1.2691,2.4259,1.063,3.7789c-0.2031,1.3318-0.9339,2.4599-2.0561,3.1768  c-0.3826,0.2436-0.7623,0.466-1.1331,0.6661c-1.6646,0.9043-3.5807,1.3027-5.4829,1.135l-19.9485-1.7731  c-2.0226-0.1795-4.0905-0.1854-6.1209-0.0178l-39.0943,3.2454c-0.1519,0.0128-0.3018,0.0187-0.4507,0.0187  c-1.5571,0-3.0294-0.6893-4.0372-1.8909c-1.0059-1.1982-1.4269-2.7701-1.1557-4.3124l9.314-52.8829  c0.2475-1.4028,0.9901-2.6724,2.0916-3.5752L36.3338,14.068c2.6507-2.1725,5.9967-3.3686,9.4225-3.3686  c0.9625,0,1.9289,0.0942,2.8736,0.2801l25.1711,4.9578c2.9614,0.5838,5.5312,2.2775,7.2353,4.7699l5.4671,7.999  c1.3737,2.0102,1.6705,4.548,0.7929,6.7895c-0.2741,0.6992-0.6124,1.4072-1.0059,2.1034c-0.4447,0.7879-1.2859,1.277-2.1941,1.277  c-0.5414,0-1.0601-0.1716-1.4979-0.4965L60.3432,21.888c-2.2237-1.6478-4.8597-2.5186-7.6258-2.5186  c-3.2335,0-6.3211,1.208-8.6957,3.4017L22.7794,42.3976c-2.5127,2.3219-2.7464,6.1836-0.5296,8.7914  c1.211,1.4245,2.9781,2.2415,4.8498,2.2415c1.282,0,2.5196-0.3821,3.5807-1.1055l14.2841-9.7415  c2.9268-1.9949,6.687-2.5526,10.0684-1.491l31.6243,9.9353c2.6221,0.8234,4.2276,3.4771,3.7345,6.1732  c-0.3027,1.6562-0.8027,3.2957-1.4851,4.8725c-0.7199,1.6656-2.3726,2.7419-4.2088,2.7419c-0.8244,0-1.638-0.2239-2.3539-0.6469  L60.503,51.2502c-1.3747-0.8136-2.9466-1.2435-4.5441-1.2435c-1.9052,0-3.7256,0.5937-5.264,1.7169l-24.039,17.5458  C23.5674,71.5231,22.8445,75.757,25.0111,78.9087z"/>
        </symbol>
        <symbol id="dallas-circuit" viewBox="0 0 100 125">
            <path d="M91.7632,11.1677c-0.5662-0.6529-1.3865-1.0297-2.2507-1.0347l-10.5987-0.0668c-0.617,0-1.23,0.1535-1.7723,0.4436  l-7.2346,3.8625c-0.8592,0.4585-1.3078,1.3746-1.1423,2.3334c0.1655,0.9579,0.8931,1.6706,1.856,1.8161  c4.2253,0.6339,10.8967,1.6387,12.5384,1.9028c0.8622,0.1386,1.5699,0.6838,1.8929,1.4583  c0.5961,1.4294-0.0359,3.5565-1.7792,5.9876c-1.4937,2.084-3.4055,4.6676-5.3145,7.1928l-1.6587-1.2656l-5.2064,6.8235  l-0.9841,0.1683l-0.3504,3.2633l1.419-1.8597l5.3142-6.9648l0.8494,0.6482c-2.9729,3.9143-5.8288,7.5414-6.9618,8.7508  c-0.8732,0.932-2.3624,1.3177-3.4588,1.4782c-0.7426,0.1086-1.4822-0.1894-1.9487-0.7735l-6.5279-8.1696  c-2.1142-2.6464-5.251-4.3659-8.6081-4.7157c-5.7006-0.5941-10.1751-0.5821-12.8773,0.0588l-13.3189,5.3258  c-1.0636,0.4276-1.5819,1.6407-1.1553,2.7033l6.2657,15.7231c-2.2557,1.1493-7.8925,4.0449-11.5068,6.0883  c-1.4832,0.8403-2.5527,2.2766-2.9335,3.9402l-1.5121,6.5927c-0.0628,0.2761-0.295,0.4785-0.5761,0.5044l-2.8528,0.2671  c-0.8702,0.0797-1.5968,0.7346-1.7663,1.5928l-0.0638,0.3269c-0.1047,0.5253,0.004,1.0586,0.304,1.5011  c0.301,0.4426,0.7566,0.7396,1.2828,0.8373l17.8572,3.3242l0.3439,1.1892c0.2243,0.7755,0.8841,1.3566,1.6806,1.4792l16.5933,2.5717  c1.2579,0.1914,2.3992-0.6499,2.6245-1.9626c0.0239-0.1366,0.1924-0.2033,0.2881-0.2053l33.677,5.563  c0.2681,0.0449,0.5343,0.0658,0.7974,0.0658c2.3952,0,4.4596-1.7912,4.8015-4.1655c0.2881-1.9886,0.2562-3.7539-0.0937-5.247  c-0.8174-3.4897-0.7117-4.2074-0.5652-5.2012l4.1934-28.9961c0.1316-0.921-0.3738-1.8201-1.228-2.1839l-1.6536-0.7217l4.031-29.8773  C92.5886,12.6848,92.3304,11.8196,91.7632,11.1677z M86.4185,43.1442c-0.1236,0.914,0.3818,1.8052,1.23,2.168l1.6546,0.7207  l-4.1705,28.8337l-0.0219,0.1565c-0.1924,1.2988-0.2651,2.2816,0.5971,5.9647c0.2921,1.244,0.312,2.7531,0.0608,4.4885  c-0.2203,1.529-1.6656,2.6385-3.2455,2.3783l-33.677-5.563c-0.1266-0.0209-0.2512-0.0309-0.3748-0.0309  c-1.1184,0-2.0683,0.8004-2.2726,1.9896c-0.0199,0.1186-0.1096,0.2193-0.2851,0.2053l-16.6252-2.5996l-0.3449-1.1901  c-0.2203-0.7615-0.8413-1.3237-1.6208-1.4672L9.5414,75.966l0.015-0.2821l2.8548-0.2671c1.1602-0.1077,2.1162-0.9449,2.3763-2.0813  l1.5121-6.5927c0.2532-1.1074,0.9649-2.0623,1.9497-2.6205c3.5784-2.0235,9.1843-4.9021,11.427-6.0454  c0.9649-0.4904,1.3885-1.6188,0.9858-2.6255l-6.2617-15.7261l13.1016-5.251c2.459-0.5622,6.7292-0.5592,12.1228,0.002  c2.8159,0.294,5.4494,1.7374,7.2246,3.9602l6.5279,8.1696c0.918,1.1493,2.3733,1.7384,3.8396,1.5191  c1.4174-0.2063,3.3761-0.7396,4.6519-2.1022c1.9846-2.1171,9.0417-11.3513,13.0627-16.9621c2.782-3.8814,2.6265-6.473,2.0045-7.9632  c-0.5961-1.4324-1.8879-2.4371-3.4528-2.6883c-1.6447-0.2641-8.3261-1.2709-12.5593-1.9068  c-0.0379-0.005-0.1256-0.0189-0.1475-0.1435c-0.0209-0.1256,0.0578-0.1675,0.0917-0.1864l7.2356-3.8625  c0.2472-0.1326,0.5273-0.2023,0.8213-0.2023c0,0,0,0,0.001,0l10.5748,0.0668c0.2811,0.002,0.5373,0.1196,0.7217,0.3319  s0.2651,0.4824,0.2273,0.7615L86.4185,43.1442z"/>
        </symbol>
        <symbol id="zolder-circuit" viewBox="0 0 100 125">
            <path d="M91.6404,30.9748c-3.1499-2.3553-10.6451-7.9557-12.2176-9.0889c-1.8045-1.299-2.6514-2.6331-3.5852-4.6404  c-0.5548-1.1919-1.2941-1.8484-1.9466-2.4273c-0.613-0.5449-1.1934-1.0592-1.7038-2.066c-0.918-1.8119-2.6534-2.8937-4.6414-2.8937  c-0.5459,0-1.074,0.0898-1.5261,0.2591l-6.0214,2.257c-2.4984,0.9363-3.1815,4.9692-3.0078,8.1378  c0.1096,2.0275,0.5054,5.7687,0.8173,8.5504c0.1273,1.1238-0.003,2.2798-0.3771,3.3439c-0.1066,0.307-0.2201,0.6234-0.3307,0.9294  c-0.4847,1.3316-1.1924,2.5566-2.1035,3.6415c-3.3187,3.949-5.7302,6.7509-6.7884,7.8905  c-1.2497,1.3454-2.3553,1.9042-2.9031,2.1179c-0.7946,0.3104-1.2833,1.0903-1.2161,1.9402  c0.0543,0.6964,0.1708,1.3844,0.3445,2.0349c-15.3833,5.9365-32.2176,12.4135-33.3311,12.7886  c-2.2319,0.7532-4.214,4.0062-3.4263,7.0722c0.4422,1.7141,2.6583,8.2271,4.4401,13.3898c0.995,2.8789,3.4529,4.9889,6.4163,5.5057  c1.6169,0.2818,3.3177,0.4245,5.0531,0.4245c0.9703,0,1.9525-0.0449,2.9179-0.1328c1.0572-0.0962,1.995-0.6638,2.5705-1.5572  c0.5775-0.8958,0.7088-1.9871,0.3583-2.9939l-1.0592-3.0507c-0.2567-0.7379-0.6515-1.4027-1.1757-1.9752  c-2.2645-2.4762-7.5821-7.549-9.7636-9.615c-0.231-0.2186-0.2892-0.5572-0.1461-0.8425l0.3939-0.7798  c0.1441-0.2868,0.3889-0.5089,0.689-0.6253l20.4114-7.928l0.3357,0.8738l-8.0987,3.1113l-2.1625,0.8307l3.199,0.5756l0.4338-0.8883  l7.9345-3.0482l-0.6996-1.8209l18.6741-7.2532c1.1154-0.4338,1.7107-1.6687,1.3553-2.8118l-0.4758-1.5246  c-0.0553-0.1782,0.0365-0.3702,0.2103-0.4373l23.753-9.2439c0.5755-0.2246,1.0898-0.5928,1.4856-1.0646l0.7611-0.9067  c0.1836-0.2186,0.4225-0.3874,0.691-0.4876l4.9297-1.8479c0.7344-0.2749,1.2586-0.9274,1.3701-1.7033  C92.589,32.2185,92.2682,31.4446,91.6404,30.9748z M90.3996,32.8044l-4.9297,1.8479c-0.5942,0.2221-1.1233,0.5962-1.53,1.0809  l-0.7611,0.9062c-0.1797,0.2137-0.4116,0.38-0.6712,0.4812l-23.7521,9.2434c-1.1589,0.4506-1.7778,1.7339-1.4086,2.9229  l0.4758,1.5251c0.0415,0.1323-0.0276,0.2754-0.157,0.3257L17.6381,66.6848c-0.767,0.2986-1.3938,0.8672-1.762,1.6006l-0.3929,0.7788  c-0.5488,1.0888-0.3238,2.3829,0.5607,3.2205c2.1648,2.0507,7.4409,7.0836,9.6619,9.5114c0.3366,0.3692,0.5923,0.7981,0.7581,1.2744  l1.0592,3.0507c0.1441,0.4156,0.0898,0.8652-0.1481,1.2349c-0.2369,0.3667-0.6209,0.5997-1.0552,0.6392  c-2.5172,0.231-5.0945,0.1397-7.4399-0.27c-2.2388-0.3904-4.0985-1.9895-4.8527-4.1735c-2.5014-7.2474-4.061-11.9476-4.3927-13.2338  c-0.5479-2.1302,1.0434-4.2915,2.1134-4.6523c1.4392-0.4857,25.9395-9.9339,33.414-12.8182  c0.9585-0.3707,1.4856-1.3973,1.226-2.3898c-0.1372-0.5212-0.23-1.0646-0.2774-1.6164c0.8667-0.3494,2.1697-1.0809,3.5783-2.5971  c1.3849-1.491,4.4924-5.1547,6.8555-7.966c1.0641-1.2665,1.8903-2.6968,2.456-4.253c0.1135-0.3149,0.229-0.6372,0.3386-0.9501  c0.4738-1.3484,0.6387-2.8143,0.4788-4.2382c-0.2537-2.2556-0.6959-6.3501-0.8094-8.4344  c-0.1648-3.0211,0.5814-5.7154,1.6988-6.1345l6.0214-2.257c0.2251-0.0844,0.5153-0.1308,0.8173-0.1308  c0.4541,0,1.9979,0.1288,2.839,1.7862c0.6841,1.3494,1.4708,2.0478,2.1647,2.6637c0.6021,0.5345,1.0779,0.957,1.455,1.7679  c1.0256,2.2067,2.0927,3.8843,4.2367,5.4287c1.5596,1.1233,9.043,6.7154,12.188,9.0667c0.0158,0.0118,0.0582,0.0434,0.0474,0.1145  C90.4667,32.7792,90.4184,32.7975,90.3996,32.8044z"/>
        </symbol>
        <symbol id="aida-circuit" viewBox="0 0 100 125">
            <path d="M88.1578,70.7953l-9.6168-7.0958c-1.5864-1.1728-3.9189-1.0649-5.3938,0.2504c-0.7106,0.6346-1.1303,1.5079-1.183,2.4592  c-0.0517,0.9519,0.2696,1.8667,0.9072,2.5758c0.9883,1.1019,1.9818,2.2458,2.9519,3.3999c0.521,0.6209,0.8505,1.3811,0.9782,2.261  c0.0963,0.6614-0.0872,1.299-0.517,1.7962c-0.669,0.7719-1.7811,1.0243-2.7217,0.5667L52.0756,66.555  c-0.6001-0.2919-1.039-0.8307-1.2022-1.4774c-0.1642-0.6472-0.0355-1.3294,0.3528-1.8723l5.0492-7.0451  c0.7501-1.0492,2.367-1.2641,3.3685-0.4308l5.4496,4.5378c1.4009,1.1662,3.5489,1.2286,5.0137,0.1429  c0.7552-0.5596,1.2235-1.4176,1.2823-2.3548c0.0598-0.9361-0.294-1.8454-0.9711-2.4947l-0.8312-0.7978  c-9.0086-8.6478-37.9616-36.439-40.7208-39.0923c-2.8657-2.7557-8.1987-7.885-14.292-7.885c-0.6356,0-1.2722,0.0568-1.8915,0.1688  c-2.9204,0.5281-4.7897,2.0943-5.1293,4.297c-0.4116,2.669,1.5803,5.6569,4.9559,7.4349c3.7182,1.9589,8.441,6.4197,10.9255,8.9042  c1.2823,1.2828,2.9083,2.1232,4.7025,2.4303l2.7816,0.4764c1.9372,0.332,3.7283,1.3178,5.0431,2.7755  c2.1936,2.4323,5.6037,6.2225,8.5575,9.5545c2.0608,2.3239,2.9894,4.219,2.8383,5.7932c-0.1379,1.4394-1.1708,2.8262-3.3502,4.4977  c-1.8084,1.3867-5.1728,3.3518-9.7294,5.6832c-3.3654,1.7212-4.7694,5.7633-3.1962,9.2028  c0.8322,1.8206,2.3183,3.2225,4.1835,3.9483l16.9115,6.5786l-0.3663,0.9541l-8.3176-3.1926L41.2724,76.44l2.045,2.6379  l0.9417-0.3796l8.149,3.1279l0.7365-1.9188l30.6361,11.9174c0.664,0.2585,1.3583,0.3898,2.0618,0.3898  c2.8089,0,5.2276-2.0983,5.627-4.8804l0.9214-6.4222C92.9505,77.0117,91.3286,73.1354,88.1578,70.7953z M90.3352,80.6169  l-0.9214,6.4222c-0.2534,1.7669-1.7881,3.0993-3.5712,3.0993c-0.445,0-0.886-0.0836-1.3097-0.2489l-48.515-18.8723  c-1.3583-0.5286-2.441-1.5504-3.0482-2.8768c-1.109-2.4258-0.1196-5.2772,2.2534-6.4911c3.2549-1.665,7.6402-4.037,10.0477-5.8839  c2.6751-2.0517,3.9564-3.8855,4.1541-5.9468c0.2119-2.2098-0.8535-4.5515-3.3523-7.369c-2.9579-3.336-6.372-7.1313-8.5697-9.5677  c-1.6249-1.8018-3.8388-3.0203-6.2332-3.4313l-2.7816-0.4764c-1.3685-0.2342-2.6082-0.8743-3.5854-1.8515  c-2.5667-2.5677-7.4648-7.187-11.4263-9.2732c-2.5514-1.3441-4.144-3.516-3.8713-5.2818c0.1987-1.2919,1.4232-2.2048,3.4465-2.5707  c0.4977-0.0897,1.0106-0.1353,1.5226-0.1353c5.257,0,10.1977,4.7522,12.8525,7.3051C30.1871,19.82,59.141,47.6128,68.1497,56.2605  l0.8312,0.7978c0.2382,0.2286,0.3578,0.5357,0.3376,0.8652c-0.0213,0.33-0.1794,0.6209-0.446,0.818  c-0.7187,0.5302-1.7669,0.4997-2.4511-0.0699l-5.4496-4.5373c-0.7876-0.6569-1.7851-1.0188-2.8089-1.0188  c-1.4161,0-2.7522,0.6863-3.5753,1.8358l-5.0482,7.0446c-0.7461,1.0411-0.9934,2.3502-0.6792,3.5915  c0.3153,1.2413,1.1556,2.2742,2.3072,2.8348l21.4871,10.4536c1.7669,0.8601,3.9301,0.3938,5.2002-1.076  c0.8302-0.96,1.186-2.187,1.0005-3.4531c-0.1835-1.2671-0.669-2.3766-1.4425-3.297c-0.9843-1.1718-1.9929-2.333-2.9965-3.4521  c-0.2666-0.296-0.4004-0.6777-0.3791-1.075c0.0213-0.3963,0.1967-0.7603,0.4927-1.0243c0.7592-0.6771,1.9595-0.7334,2.7785-0.1287  l9.6168,7.0963C89.4797,74.3513,90.7863,77.4745,90.3352,80.6169z"/>
        </symbol>
        <symbol id="zandvort-circuit" viewBox="0 0 100 125">
            <path d="M88.3248,63.1179c-1.1035-2.0314-3.2241-3.293-5.5343-3.293c-1.1627,0-2.3035,0.325-3.2983,0.9405  c-5.7778,3.5738-15.2541,9.4331-17.3354,10.7049l-0.0989,0.0606c-1.6831,1.0288-3.5908,2.1943-4.944,2.1943  c-0.5238,0-1.1321-0.1407-1.6676-1.185c-0.6082-1.1859-0.2304-2.5125,1.1219-3.9434c0.5088-0.5384,0.7707-1.2398,0.7368-1.9756  c-0.0335-0.7281-0.3536-1.394-0.9017-1.8757c-2.6008-2.286-9.0659-8.0813-12.9215-12.5156  c-4.9513-5.6939-11.1919-19.035-12.1523-21.6605c-0.1077-0.2939-0.244-0.6339-0.3943-1.0084  c-1.428-3.5529-2.5634-7.1626,0.5268-8.8481c0.7664-0.4181,1.5221-0.6301,2.2462-0.6301c2.5499,0,4.6069,2.6212,5.8836,4.8199  c0.2183,0.3759,0.4535,0.8246,0.7125,1.3169c1.6501,3.1387,4.1432,7.8819,8.8501,7.8819c0.9895,0,1.8883-0.406,2.5984-1.1748  c2.8661-3.1014,2.2719-11.7642,2.1934-12.7576c-0.212-2.2293-1.2369-4.5987-2.0585-6.1935  c-0.7067-1.3717-2.0396-2.3423-3.5651-2.5964c-5.1104-0.8527-14.0299-2.4829-20.6128-3.7004  c-3.9822-0.7358-7.9678,0.8323-10.3959,4.0501c-2.0158,2.6711-2.6435,6.0553-1.7219,9.2837  c1.6632,5.8278,2.6842,9.354,3.1212,10.7801c1.4289,4.6695,6.6727,9.6674,11.2355,12.5495  c5.1453,3.2498,6.0606,9.1091,6.2148,11.4771c0.2605,3.9904,1.12,9.4011,5.4921,15.8716c2.1419,3.1698,3.939,4.7549,5.383,6.0286  c1.4212,1.2533,2.4475,2.1589,3.2216,4.0938c0.3473,0.8682,0.3347,1.6021-0.0378,2.2443c-0.4239,0.7305-1.2034,1.1665-2.0842,1.1665  c-0.7145,0-1.379-0.2818-1.8703-0.7935l-6.5738-6.841c-1.4411-1.4997-3.8571-1.9188-5.724-0.9875l-3.1998,1.6002  c-2.0435,1.022-4.3411,1.5284-6.6325,1.4687l-11.269-0.3148l-0.1353-0.0019c-2.2695,0-4.2063,1.5458-4.7107,3.7596L7.847,83.885  c-0.3284,1.4415,0.0121,2.9306,0.9342,4.0865c0.9221,1.1554,2.2981,1.8179,3.7765,1.8179h41.8857v1.0552h-8.5261h-2.2766  L46.3725,92.5l0.7111-0.6621h8.3532v-2.0485h21.1814c9.4496,0,14.5547-4.6011,15.6067-14.0662  C92.5567,72.7334,91.2442,68.4922,88.3248,63.1179z M90.2504,75.5039c-0.6364,5.7259-2.7609,12.2987-13.6321,12.2987H12.5577  c-0.8702,0-1.6807-0.39-2.2234-1.0705c-0.5428-0.6805-0.7436-1.557-0.55-2.4063l0.1756-0.7712  c0.2968-1.3028,1.4362-2.2128,2.8506-2.2128c0.001,0,0.0019,0,0.0029,0l11.269,0.3148c2.6187,0.0747,5.2419-0.5098,7.5764-1.6773  l3.1998-1.6002c1.1098-0.5544,2.546-0.3046,3.4026,0.5869l6.5738,6.841c0.8571,0.892,2.0609,1.4037,3.3031,1.4037  c1.5972,0,3.0189-0.8061,3.8022-2.156c0.6805-1.1714,0.7373-2.5479,0.1644-3.9798c-0.9497-2.3738-2.2482-3.519-3.7518-4.8456  c-1.4304-1.2611-3.0514-2.691-5.0512-5.6512c-4.1049-6.0752-4.9115-11.1477-5.1555-14.8879  c-0.1746-2.6721-1.2189-9.2905-7.1364-13.0282c-5.0304-3.177-9.306-7.8853-10.3974-11.4509  c-0.4273-1.3945-1.4736-5.009-3.1106-10.7437c-0.7484-2.6236-0.2391-5.3728,1.3974-7.5419c1.9765-2.6197,5.2021-3.8934,8.4494-3.293  c6.5903,1.2189,15.5223,2.8516,20.6473,3.7062c0.9099,0.1518,1.7044,0.73,2.1255,1.5468c0.7416,1.4396,1.6647,3.5578,1.8451,5.4558  c0.1911,2.4155,0.2619,9.143-1.6729,11.237c-0.3381,0.3662-0.7004,0.5365-1.1394,0.5365c-3.5064,0-5.6638-4.1039-7.0918-6.8197  c-0.2731-0.5195-0.5224-0.9934-0.7528-1.3896c-3.0519-5.2579-6.9686-7.0273-10.7995-4.9368  c-4.8989,2.6726-2.5484,8.5222-1.4187,11.333c0.1421,0.3531,0.2711,0.6732,0.3725,0.9507  c0.9851,2.6934,7.4037,16.3998,12.5185,22.2814c3.9347,4.525,10.4784,10.3915,13.1092,12.7037  c0.1387,0.1222,0.2202,0.291,0.2285,0.4753c0.0092,0.1916-0.0606,0.3759-0.1955,0.519c-1.9373,2.0488-2.4504,4.2562-1.4459,6.2153  c0.9599,1.8718,2.398,2.2647,3.4351,2.2647c1.9125,0,3.9803-1.2635,5.9801-2.4858l0.0989-0.0606  c2.0823-1.2723,11.5634-7.1345,17.3441-10.7102c0.681-0.4215,1.46-0.6437,2.2535-0.6437c1.5812,0,3.033,0.8639,3.7882,2.2545  C89.2628,69.0068,90.5322,72.9618,90.2504,75.5039z"/>
        </symbol>
        <symbol id="shanghai-circuit" viewBox="0 0 100 125">
            <path d="M91.0096,42.5749c-1.1438-1.649-2.9312-2.557-5.0329-2.557c-2.0879,0-4.414,0.9288-5.6557,2.2584  c-0.5862,0.6273-0.8719,1.3-0.8284,1.945c0.0761,1.1117,0.8136,2.341,2.1917,3.6543c0.1147,0.1087,0.1107,0.2358,0.0979,0.302  c-0.0119,0.0648-0.0544,0.1824-0.1977,0.2407L53.7775,59.6898c-0.7266,0.2931-1.5887,0.1606-2.1966-0.3336  c-0.9718-0.7889-1.991-1.7523-3.03-2.8629c-0.3658-0.3925-0.2906-0.8334-0.2412-1.0049c0.0504-0.1745,0.2244-0.5951,0.7543-0.735  c0.3124-0.0821,0.6327-0.1611,0.9589-0.2422c1.7271-0.4276,3.6845-0.9125,5.8376-2.1403c4.413-2.5159,2.9677-6.9557,2.4645-8.5013  c-0.5071-1.5644-1.649-2.3217-4.1501-3.9815l-1.2239-0.8097c-2.4141-1.5852-4.0097-2.6326-4.6711-5.8475  c-0.693-3.3597,0.9421-6.9043,3.8041-8.2453c1.3168-0.6169,3.0735-1.2496,5.108-1.9821c2.8778-1.0355,6.1381-2.2095,9.5853-3.8288  c3.7843-1.7785,5.3206-3.9252,5.9434-5.4135c0.258-0.6179,0.1918-1.3178-0.1779-1.8729c-0.4083-0.6124-1.1191-0.95-1.8605-0.868  c-3.2119,0.3539-10.2269,1.3692-14.1229,1.9431c-1.472,0.217-2.8689,0.7034-4.1511,1.4458  c-3.9702,2.2994-12.2861,7.5291-15.678,9.6703c-0.7533,0.4765-1.7073,0.5813-2.5476,0.2753  c-0.9154-0.3327-1.6915-0.6866-2.3044-1.0509c-0.6011-0.3584-0.9708-0.7993-1.0696-1.2748c-0.087-0.4201,0.0376-0.8892,0.35-1.3203  c0.1888-0.2615,0.344-0.2832,0.4745-0.2832c0.4211,0,0.9827,0.3391,1.2239,0.4839l0.1186,0.0732  c0.5408,0.3336,1.5461,0.9545,2.6959,0.954c0.8205,0,1.9663-0.3198,2.769-1.8427c0.6584-1.2491,0.6465-2.7315-0.0316-4.067  c-0.9214-1.8145-2.8867-3.1061-5.2583-3.4561c-2.3034-0.3391-4.9044,0.6693-6.6927,2.5847  c-1.3494,1.4443-2.0582,3.2129-1.9465,4.8515l1.6235,23.7051l-0.9404,0.0648l-0.5966-8.6682l-0.1593-2.3146l-1.4919,2.8932  l0.7229,0.6766l0.5844,8.4924l1.9501-0.1342l1.9898,29.0506c0.0099,0.1438-0.0712,0.2813-0.2017,0.3425l-16.9206,7.9517  L10.8255,82.23c-0.8877,0.7968-1.8991,2.0657-3.0063,3.771c-0.3935,0.6045-0.4251,1.3405-0.084,1.9693  c0.3421,0.6302,0.9925,1.0217,1.6964,1.0217c0.264,0,0.524-0.0544,0.7731-0.1616c12.2337-5.2697,73.438-31.6342,76.909-33.1443  c2.3568-1.0252,4.2885-3.3083,5.0418-5.9582C92.8711,47.2104,92.4638,44.6702,91.0096,42.5749z M90.2079,49.1742  c-0.5922,2.082-2.0869,3.8659-3.901,4.6553c-3.4432,1.4972-63.7687,27.4837-76.6243,33.0212  c0.8858-1.3395,1.7073-2.3756,2.3894-3.0172l16.7812-7.8855c0.8947-0.4201,1.4285-1.3287,1.3613-2.3138l-3.6825-53.7657  c-0.0741-1.081,0.4379-2.295,1.4058-3.331c1.3425-1.4364,3.2119-2.2125,4.9182-1.9638c1.7221,0.2541,3.1229,1.1398,3.7477,2.3696  c0.3826,0.7528,0.3984,1.5368,0.0455,2.2065c-0.4014,0.7622-0.8047,0.7622-0.9777,0.7622  c-0.5754,0.0005-1.2634-0.4241-1.6322-0.6525l-0.1374-0.084c-0.3846-0.2318-1.2852-0.7746-2.2688-0.7746  c-0.8531,0-1.5847,0.3875-2.1156,1.1211c-0.6485,0.8971-0.8947,1.9327-0.691,2.9163c0.1503,0.7301,0.6228,1.775,2.0157,2.6049  c0.7227,0.43,1.6144,0.8388,2.6494,1.2145c1.4186,0.5146,3.0409,0.3406,4.3201-0.4661c3.381-2.1358,11.6712-7.3486,15.6108-9.6303  c1.0598-0.6134,2.2144-1.0158,3.4314-1.1952c3.8822-0.5719,10.8695-1.5832,13.9984-1.9861c-0.4844,1.1596-1.735,2.8575-4.936,4.3616  c-3.3612,1.5793-6.5741,2.7359-9.4094,3.7566c-2.082,0.7498-3.8802,1.3969-5.283,2.0543  c-3.7457,1.7552-5.8178,6.1658-4.9271,10.4869c0.8314,4.0374,3.0152,5.4708,5.543,7.1312l1.215,0.8042  c2.3212,1.5397,3.0686,2.0671,3.3731,3.0078c0.6979,2.1413,1.0558,4.5322-1.5699,6.0294c-1.9099,1.0889-3.6439,1.5185-5.3216,1.9337  c-0.3371,0.0835-0.6663,0.1651-0.9886,0.2501c-1.0627,0.2798-1.8793,1.0766-2.1838,2.1309  c-0.3025,1.0489-0.0376,2.1507,0.7078,2.9489c1.1023,1.1779,2.1897,2.205,3.2327,3.0528c1.1735,0.9505,2.8353,1.2026,4.2341,0.6376  l27.8069-11.2714c0.7434-0.3015,1.2763-0.9515,1.4255-1.7394c0.1503-0.7899-0.1087-1.5921-0.691-2.1462  c-1.3603-1.2955-1.5491-2.0577-1.5669-2.3123c0.0544-0.4963,1.9831-2.0543,4.4635-2.0543c1.4601,0,2.5931,0.5674,3.3701,1.6865  C90.4491,45.3172,90.7546,47.2509,90.2079,49.1742z"/>
        </symbol>
        <symbol id="sakhir-circuit" viewBox="0 0 100 125">
            <path d="M92.0723,69.8111L65.659,27.0283c-0.7983-1.2929-2.1821-2.0643-3.7012-2.0643c-1.5121,0-2.891,0.767-3.6883,2.0519  c-1.8382,2.9645-3.392,5.9922-4.6168,8.999c-1.016,2.4928-1.1184,4.6262-0.3151,6.5221c1.531,3.6122,6.115,5.4539,10.5488,7.2354  l0.8182,0.3296c3.2936,1.3312,4.5561,4.6864,5.0353,7.2657c0.1432,0.77-0.0626,1.5563-0.5627,2.1583  c-0.501,0.602-1.2367,0.9474-2.0201,0.9474h-38.174c-0.4692,0-0.9424-0.0234-1.4057-0.0701l-6.1418-0.6189l1.0389-1.7074  c1.0041-1.6503,3.0003-2.5525,4.912-2.207c2.7727,0.5015,6.7552,1.1497,9.9792,1.3913c2.8164,0.2118,6.8576,0.4926,10.2118,0.7222  c0.0666,0.0045,0.1322,0.007,0.1968,0.007c0.001,0,0.001,0,0.001,0c1.1761,0,2.202-0.762,2.553-1.8953  c0.3559-1.1477-0.0557-2.3288-1.0478-3.0093l-9.7873-6.709c-1.3988-0.9588-2.1881-2.6046-2.0599-4.2957l0.1461-1.9242  c0.2197-2.9014-1.4485-5.5766-4.1505-6.6578l-2.1831-0.8729c-0.5696-0.2282-1.0896-0.5851-1.5061-1.0329l-8.645-9.2887  c-0.7307-0.7854-1.7159-1.2178-2.7746-1.2178c-1.8879,0-3.4765,1.3476-3.7777,3.2036L9.2445,56.9613  c-0.4225,2.6046-0.0219,5.2297,1.1592,7.5908l1.0478,2.0981c0.4772,0.9529,0.2972,2.1056-0.4494,2.8671L8.142,72.4381  c-0.6343,0.6487-0.8172,1.6085-0.4653,2.4451c0.3509,0.8366,1.1651,1.3774,2.0728,1.3774h55.8591v0.9561h-8.7375H54.538  l2.7995,1.6965l0.7288-0.6785h8.5603v-1.9741h15.8473c2.1245,0,4.2688-0.4682,6.2014-1.3535l2.1533-0.9877  c0.7466-0.342,1.3113-0.9887,1.5489-1.774C92.6151,71.36,92.5038,70.509,92.0723,69.8111z M90.429,71.5558  c-0.0696,0.2301-0.2287,0.4121-0.4484,0.5125l-2.1543,0.9877c-1.6672,0.7645-3.5183,1.1686-5.3524,1.1686H9.7495  c-0.0348,0-0.1412,0-0.1968-0.1307c-0.0358-0.0865-0.0209-0.164,0.0447-0.2311l2.8601-2.9208  c1.353-1.3824,1.6811-3.4735,0.8152-5.2023L12.225,63.642c-0.9882-1.9768-1.3242-4.1744-0.9703-6.3545l5.2978-32.6709  c0.166-1.0265,1.0329-1.4937,1.7676-1.4937c0.344,0,0.847,0.0989,1.2834,0.5686l8.645,9.2887  c0.6193,0.6661,1.3938,1.1969,2.2408,1.5364l2.1841,0.8734c1.872,0.7486,3.0282,2.6027,2.876,4.6133l-0.1461,1.9237  c-0.1829,2.4128,0.9434,4.7614,2.9387,6.1289l9.7873,6.709c0.3569,0.2451,0.2972,0.5905,0.2545,0.7272  c-0.0338,0.1084-0.176,0.4603-0.6631,0.4603c-0.001,0-0.003,0-0.004,0c-3.3503-0.2296-7.3855-0.5105-10.1979-0.7212  c-3.1375-0.2356-7.0445-0.8719-9.7704-1.3645c-2.7319-0.4961-5.5801,0.7963-7.0137,3.1519l-1.0379,1.7064  c-0.3678,0.602-0.3996,1.3386-0.0845,1.9699c0.3141,0.6318,0.9206,1.0503,1.6224,1.1204l6.1398,0.6139  c0.5309,0.0532,1.0717,0.08,1.6085,0.08h38.174c1.3898,0,2.6971-0.6129,3.5859-1.6816c0.8878-1.0682,1.2526-2.465,0.9991-3.8314  c-0.8212-4.4175-2.9904-7.4546-6.274-8.7822l-0.8232-0.331c-4.0471-1.6259-8.2315-3.3075-9.4324-6.1403  c-0.5816-1.3719-0.4752-2.9939,0.3251-4.9593c1.183-2.9014,2.6842-5.8267,4.4617-8.6943c0.4235-0.682,1.1552-1.0891,1.9585-1.0891  c0.8082,0,1.5449,0.4106,1.9694,1.098l26.4133,42.7833C90.4668,71.0861,90.4986,71.3257,90.429,71.5558z"/>
        </symbol>
        <symbol id="jeddah-circuit" viewBox="0 0 100 125">
            <path d="M94.14,24.03c-0.78-0.52-1.77-0.04-1.82-0.02l-0.02,0.01L90.87,25l-0.02,0.02c-0.87,0.71-6.99,4.54-7.34,4.76   c-1.76,0.86-5.29,3.61-6.78,4.8l0.25,0.25l0.25,0.25c1.51-1.21,4.96-3.88,6.6-4.68l0.03-0.02c0.26-0.17,6.45-4.04,7.42-4.81   l1.37-0.95c0.12-0.05,0.71-0.28,1.11-0.01c0.59,0.39,0.58,0.9,0.53,1.17c0,0.01-0.21,1.1-0.65,2.64l-0.88,3.22   c-0.06,0.19-1.32,3.92-3.59,6.62c-0.01,0.02-1.33,1.52-2.13,2.2l-0.07,0.06c-0.91,0.78-3.04,2.6-6.24,4.35   c-0.16,0.07-2.07,0.88-4.51,0.88c-0.17-0.01-2.14-0.15-3.63-0.38l-0.28-0.04c-1.51-0.23-2.81-0.44-3.79-0.1l-0.03,0.01l-0.02,0.01   c-0.08,0.05-2.07,1.12-3.14,2.05c-0.12,0.09-1,0.82-1.23,2.22l0,0.02c-0.01,0.07-0.18,1.64-2.01,1.75   c-0.11,0.01-2.57,0.2-3.76,0.77c-0.42,0.12-4.33,1.29-6.78,4.24c-0.07,0.07-0.75,0.85-1.18,1.57c-0.4,0.68-0.94,1.19-0.95,1.19   l-0.03,0.03c-0.01,0.01-1.23,1.45-3.2,2.41c-0.01,0-0.83,0.42-1.81,0.69c-1.12,0.3-2.35,0.81-2.99,1.22   c-0.66,0.43-2.42,1.84-3.22,2.78l-1.36,1.34l-0.01,0.01c-0.02,0.02-1.84,1.95-5.33,2.9l-0.01,0c-0.02,0.01-1.72,0.5-2.8-0.35   l-0.87-1.06c-0.09-0.12-0.63-0.83-1.47-0.83c-0.76,0-1.58,0.38-1.68,0.43c-0.08,0.03-1.2,0.47-2.95,0.32   c-0.22-0.04-2.56-0.41-3.9-0.06c-0.29,0.04-2.72,0.43-4.69,2.27c-0.05,0.04-1.17,1.08-1.68,1.97l-0.01,0.02   c0,0.01-0.47,0.97-1.6,1.71c-1.07,0.71-1.77,0.61-1.78,0.61l-0.06-0.01L7.9,75.5c-0.01,0-1.25,0.21-1.87-0.76l-0.01-0.02   c0,0-0.33-0.46-0.33-1.05c0-0.63,0.36-1.23,0.92-1.54l0.27-0.16l3.37-1.48l6.43-2.87l2.3-0.92c0.02-0.01,1.65-0.67,3.53-0.86   c0.25,0.01,2.15,0.07,2.96-0.1c0.1-0.02,1.04-0.18,1.68-0.4c0.48-0.17,1.01-0.1,1.12-0.08c0.13,0.04,0.91,0.34,1.39,1.09l0.03,0.04   c0.11,0.13,1.06,1.23,2.09,1.23c0.94,0,1.37-0.15,1.42-0.17l3.07-1.18l0.04-0.02c0.04-0.02,1-0.53,1.15-1.66   c0.1-0.76,0.25-1.17,0.29-1.28c0.17-0.23,1.34-1.67,3.04-2.15l0.01,0c0.01,0,0.86-0.25,2.42,0.3l0.02,0.01l0.03,0   c0.07,0.01,1.67,0.31,3.04-0.71c1.34-1,1.62-2,1.63-2.04l0.14-0.53l0.08-0.74l-0.02-0.91c0.02-0.05,0.09-0.2,0.39-0.28l0.04-0.01   l1.65-0.83l3.53-2.1L55.96,52L56,51.97c0.01-0.01,1.29-0.99,3.04-1.11l1.87-0.03l0.02,0c0.21-0.02,2.09-0.19,2.22-1.29   c0.03-0.17,0.09-0.88-0.82-1.49c-0.13-0.1-0.08-0.27-0.04-0.35l0.69-0.65l13.44-11.3c0.02-0.01,0.12-0.1,0.3-0.24l0.91,0.91   l0.36-0.36l-0.87-0.87l-0.25-0.25l-0.25-0.25l-0.78-0.78l-0.36,0.36l0.74,0.74c-0.14,0.11-0.22,0.18-0.25,0.2L62.53,46.54   l-0.78,0.74l-0.02,0.04c-0.16,0.27-0.33,0.89,0.2,1.29l0.02,0.01c0.57,0.38,0.54,0.74,0.54,0.79l-0.01,0.05   c-0.04,0.39-0.96,0.64-1.58,0.68l-1.87,0.03l-0.02,0c-1.86,0.12-3.23,1.11-3.41,1.24l-2.2,1.32l-3.49,2.08l-1.58,0.79   c-0.63,0.18-0.84,0.63-0.87,0.87l0,0.02l0.02,0.93l-0.07,0.64l-0.13,0.47c0,0.01-0.25,0.83-1.38,1.67   c-1.04,0.77-2.3,0.62-2.48,0.59c-1.71-0.6-2.7-0.33-2.82-0.3c-2.06,0.58-3.37,2.36-3.43,2.44l-0.02,0.03L37.13,63   c-0.01,0.02-0.22,0.49-0.36,1.5c-0.1,0.72-0.68,1.08-0.78,1.14l-3.04,1.17c-0.03,0.01-0.39,0.12-1.18,0.12   c-0.6,0-1.31-0.68-1.55-0.97c-0.65-1.01-1.73-1.35-1.77-1.36l-0.04-0.01c-0.03-0.01-0.78-0.15-1.5,0.1   c-0.6,0.21-1.56,0.37-1.57,0.38l-0.01,0c-0.75,0.16-2.8,0.08-2.82,0.08l-0.02,0l-0.02,0c-1.99,0.19-3.68,0.88-3.75,0.91L16.42,67   l-6.45,2.87l-3.38,1.48l-0.32,0.18C5.5,71.96,5,72.8,5,73.68c0,0.77,0.39,1.35,0.45,1.44c0.61,0.95,1.6,1.09,2.15,1.09   c0.16,0,0.28-0.01,0.35-0.02c0.24,0.03,1.07,0.05,2.22-0.72c1.23-0.81,1.76-1.84,1.83-1.98c0.46-0.79,1.54-1.79,1.55-1.8   c1.88-1.76,4.3-2.09,4.33-2.1l0.05-0.01c1.23-0.33,3.62,0.06,3.64,0.07l0.03,0c2.01,0.18,3.25-0.35,3.31-0.37l0.01-0.01   c0.01,0,0.75-0.36,1.39-0.36c0.53,0,0.91,0.54,0.91,0.54l0.94,1.15l0.03,0.02c1.34,1.09,3.31,0.54,3.45,0.5   c3.63-0.99,5.51-2.94,5.65-3.09l1.36-1.35l0.02-0.02c0.73-0.86,2.44-2.24,3.08-2.66c0.58-0.38,1.76-0.85,2.8-1.14   c1.05-0.28,1.9-0.72,1.93-0.73c2.02-0.98,3.26-2.4,3.41-2.57c0.1-0.09,0.63-0.62,1.05-1.33c0.41-0.69,1.1-1.47,1.11-1.47l0.01-0.01   c2.4-2.89,6.43-4.02,6.47-4.03l0.03-0.01l0.03-0.01c1.05-0.52,3.51-0.71,3.53-0.71c1.92-0.12,2.57-1.59,2.64-2.36   c0.2-1.18,0.97-1.78,0.97-1.78l0.02-0.02c0.95-0.83,2.77-1.83,3-1.95c0.82-0.27,2.03-0.08,3.43,0.14l0.28,0.04   c1.57,0.24,3.68,0.38,3.7,0.38l0.02,0c2.69,0,4.73-0.91,4.82-0.95l0.02-0.01c3.28-1.79,5.53-3.72,6.37-4.44l0.07-0.06   c0.84-0.72,2.15-2.21,2.21-2.28c2.41-2.86,3.67-6.7,3.72-6.86l0.89-3.24c0.45-1.57,0.66-2.66,0.67-2.7   C95.11,25.16,94.81,24.48,94.14,24.03z"/>
        </symbol>
        <symbol id="miami-circuit" viewBox="0 0 100 40">
            
        </symbol>
        <symbol id="monaco-circuit" viewBox="0 0 100 125">

        </symbol>
        <symbol id="barcelona-circuit" viewBox="0 0 100 125">
        
        </symbol>
        <symbol id="spielberg-circuit" viewBox="0 0 100 125">
        
        </symbol>
        <symbol id="silverstone-circuit" viewBox="0 0 100 125">
        
        </symbol>
        <symbol id="spa-circuit" viewBox="0 0 100 125">
        
        </symbol>
        <symbol id="mogyorod-circuit" viewBox="0 0 100 125">
        
        </symbol>
        <symbol id="monza-circuit" viewBox="0 0 100 125">
        
        </symbol>
        <symbol id="baku-circuit" viewBox="0 0 100 125">
        
        </symbol>
        <symbol id="marina-bay-circuit" viewBox="0 0 100 125">
        
        </symbol>
        <symbol id="austin-circuit" viewBox="0 0 100 125">
        
        </symbol>
        <symbol id="mexico-city-circuit" viewBox="0 0 100 125">
        
        </symbol>
        <symbol id="sao-paulo-circuit" viewBox="0 0 100 125">
        
        </symbol>
        <symbol id="vegas-circuit" viewBox="0 0 100 125">
        
        </symbol>
        <symbol id="circuit-circuit" viewBox="0 0 100 125">
        
        </symbol>
    </defs>
</svg>